M48
INCH,TZ
T1C0.0157
T2C0.0354
%
G90
G05
T1
X50250Y-39250
X50250Y-40100
X50400Y-36300
X50800Y-35900
X51700Y-42900
X52000Y-35250
X52250Y-43250
X52500Y-34500
X53000Y-37500
X53500Y-36500
X53500Y-41900
X54000Y-38250
X54000Y-39250
X54000Y-40500
X54500Y-40500
X54750Y-34500
X55700Y-37900
X55800Y-36500
X55800Y-37100
X55900Y-43100
X56500Y-42900
X56600Y-40600
X56750Y-38500
X57250Y-35500
X57400Y-37500
X57500Y-38250
X58000Y-41500
X58500Y-40500
T2
X52000Y-39000
X53000Y-39000
X55000Y-39000
X56000Y-39000
T0
M30
