G04 #@! TF.GenerationSoftware,KiCad,Pcbnew,6.0.8-f2edbf62ab~116~ubuntu20.04.1*
G04 #@! TF.CreationDate,2022-10-20T17:58:06+02:00*
G04 #@! TF.ProjectId,IR-Lese-Schreibkopf,49522d4c-6573-4652-9d53-636872656962,rev?*
G04 #@! TF.SameCoordinates,Original*
G04 #@! TF.FileFunction,AssemblyDrawing,Top*
%FSLAX46Y46*%
G04 Gerber Fmt 4.6, Leading zero omitted, Abs format (unit mm)*
G04 Created by KiCad (PCBNEW 6.0.8-f2edbf62ab~116~ubuntu20.04.1) date 2022-10-20 17:58:06*
%MOMM*%
%LPD*%
G01*
G04 APERTURE LIST*
G04 #@! TA.AperFunction,Profile*
%ADD10C,0.200000*%
G04 #@! TD*
%ADD11C,0.050000*%
%ADD12C,0.080000*%
%ADD13C,0.075000*%
%ADD14C,0.120000*%
%ADD15C,0.100000*%
%ADD16C,0.100000*%
G04 #@! TD*
G04 APERTURE END LIST*
D10*
X150660000Y-99060000D02*
G75*
G03*
X150660000Y-99060000I-13500000J0D01*
G01*
D11*
X144955238Y-94010476D02*
X144940000Y-94040952D01*
X144909523Y-94071428D01*
X144863809Y-94117142D01*
X144848571Y-94147619D01*
X144848571Y-94178095D01*
X144924761Y-94162857D02*
X144909523Y-94193333D01*
X144879047Y-94223809D01*
X144818095Y-94239047D01*
X144711428Y-94239047D01*
X144650476Y-94223809D01*
X144620000Y-94193333D01*
X144604761Y-94162857D01*
X144604761Y-94101904D01*
X144620000Y-94071428D01*
X144650476Y-94040952D01*
X144711428Y-94025714D01*
X144818095Y-94025714D01*
X144879047Y-94040952D01*
X144909523Y-94071428D01*
X144924761Y-94101904D01*
X144924761Y-94162857D01*
X144604761Y-93919047D02*
X144604761Y-93720952D01*
X144726666Y-93827619D01*
X144726666Y-93781904D01*
X144741904Y-93751428D01*
X144757142Y-93736190D01*
X144787619Y-93720952D01*
X144863809Y-93720952D01*
X144894285Y-93736190D01*
X144909523Y-93751428D01*
X144924761Y-93781904D01*
X144924761Y-93873333D01*
X144909523Y-93903809D01*
X144894285Y-93919047D01*
D12*
X148562190Y-99143333D02*
X148324095Y-99310000D01*
X148562190Y-99429047D02*
X148062190Y-99429047D01*
X148062190Y-99238571D01*
X148086000Y-99190952D01*
X148109809Y-99167142D01*
X148157428Y-99143333D01*
X148228857Y-99143333D01*
X148276476Y-99167142D01*
X148300285Y-99190952D01*
X148324095Y-99238571D01*
X148324095Y-99429047D01*
X148562190Y-98667142D02*
X148562190Y-98952857D01*
X148562190Y-98810000D02*
X148062190Y-98810000D01*
X148133619Y-98857619D01*
X148181238Y-98905238D01*
X148205047Y-98952857D01*
X138346666Y-95428571D02*
X138322857Y-95452380D01*
X138251428Y-95476190D01*
X138203809Y-95476190D01*
X138132380Y-95452380D01*
X138084761Y-95404761D01*
X138060952Y-95357142D01*
X138037142Y-95261904D01*
X138037142Y-95190476D01*
X138060952Y-95095238D01*
X138084761Y-95047619D01*
X138132380Y-95000000D01*
X138203809Y-94976190D01*
X138251428Y-94976190D01*
X138322857Y-95000000D01*
X138346666Y-95023809D01*
X138822857Y-95476190D02*
X138537142Y-95476190D01*
X138680000Y-95476190D02*
X138680000Y-94976190D01*
X138632380Y-95047619D01*
X138584761Y-95095238D01*
X138537142Y-95119047D01*
X137973571Y-105493333D02*
X137997380Y-105517142D01*
X138021190Y-105588571D01*
X138021190Y-105636190D01*
X137997380Y-105707619D01*
X137949761Y-105755238D01*
X137902142Y-105779047D01*
X137806904Y-105802857D01*
X137735476Y-105802857D01*
X137640238Y-105779047D01*
X137592619Y-105755238D01*
X137545000Y-105707619D01*
X137521190Y-105636190D01*
X137521190Y-105588571D01*
X137545000Y-105517142D01*
X137568809Y-105493333D01*
X137521190Y-105326666D02*
X137521190Y-105017142D01*
X137711666Y-105183809D01*
X137711666Y-105112380D01*
X137735476Y-105064761D01*
X137759285Y-105040952D01*
X137806904Y-105017142D01*
X137925952Y-105017142D01*
X137973571Y-105040952D01*
X137997380Y-105064761D01*
X138021190Y-105112380D01*
X138021190Y-105255238D01*
X137997380Y-105302857D01*
X137973571Y-105326666D01*
X129718571Y-102318333D02*
X129742380Y-102342142D01*
X129766190Y-102413571D01*
X129766190Y-102461190D01*
X129742380Y-102532619D01*
X129694761Y-102580238D01*
X129647142Y-102604047D01*
X129551904Y-102627857D01*
X129480476Y-102627857D01*
X129385238Y-102604047D01*
X129337619Y-102580238D01*
X129290000Y-102532619D01*
X129266190Y-102461190D01*
X129266190Y-102413571D01*
X129290000Y-102342142D01*
X129313809Y-102318333D01*
X129313809Y-102127857D02*
X129290000Y-102104047D01*
X129266190Y-102056428D01*
X129266190Y-101937380D01*
X129290000Y-101889761D01*
X129313809Y-101865952D01*
X129361428Y-101842142D01*
X129409047Y-101842142D01*
X129480476Y-101865952D01*
X129766190Y-102151666D01*
X129766190Y-101842142D01*
X128496190Y-95968333D02*
X128258095Y-96135000D01*
X128496190Y-96254047D02*
X127996190Y-96254047D01*
X127996190Y-96063571D01*
X128020000Y-96015952D01*
X128043809Y-95992142D01*
X128091428Y-95968333D01*
X128162857Y-95968333D01*
X128210476Y-95992142D01*
X128234285Y-96015952D01*
X128258095Y-96063571D01*
X128258095Y-96254047D01*
X127996190Y-95801666D02*
X127996190Y-95492142D01*
X128186666Y-95658809D01*
X128186666Y-95587380D01*
X128210476Y-95539761D01*
X128234285Y-95515952D01*
X128281904Y-95492142D01*
X128400952Y-95492142D01*
X128448571Y-95515952D01*
X128472380Y-95539761D01*
X128496190Y-95587380D01*
X128496190Y-95730238D01*
X128472380Y-95777857D01*
X128448571Y-95801666D01*
D13*
X140589047Y-104501190D02*
X140589047Y-104905952D01*
X140612857Y-104953571D01*
X140636666Y-104977380D01*
X140684285Y-105001190D01*
X140779523Y-105001190D01*
X140827142Y-104977380D01*
X140850952Y-104953571D01*
X140874761Y-104905952D01*
X140874761Y-104501190D01*
X141089047Y-104548809D02*
X141112857Y-104525000D01*
X141160476Y-104501190D01*
X141279523Y-104501190D01*
X141327142Y-104525000D01*
X141350952Y-104548809D01*
X141374761Y-104596428D01*
X141374761Y-104644047D01*
X141350952Y-104715476D01*
X141065238Y-105001190D01*
X141374761Y-105001190D01*
X132969047Y-104501190D02*
X132969047Y-104905952D01*
X132992857Y-104953571D01*
X133016666Y-104977380D01*
X133064285Y-105001190D01*
X133159523Y-105001190D01*
X133207142Y-104977380D01*
X133230952Y-104953571D01*
X133254761Y-104905952D01*
X133254761Y-104501190D01*
X133754761Y-105001190D02*
X133469047Y-105001190D01*
X133611904Y-105001190D02*
X133611904Y-104501190D01*
X133564285Y-104572619D01*
X133516666Y-104620238D01*
X133469047Y-104644047D01*
D14*
X136251904Y-89668333D02*
X135870952Y-89935000D01*
X136251904Y-90125476D02*
X135451904Y-90125476D01*
X135451904Y-89820714D01*
X135490000Y-89744523D01*
X135528095Y-89706428D01*
X135604285Y-89668333D01*
X135718571Y-89668333D01*
X135794761Y-89706428D01*
X135832857Y-89744523D01*
X135870952Y-89820714D01*
X135870952Y-90125476D01*
X135528095Y-89363571D02*
X135490000Y-89325476D01*
X135451904Y-89249285D01*
X135451904Y-89058809D01*
X135490000Y-88982619D01*
X135528095Y-88944523D01*
X135604285Y-88906428D01*
X135680476Y-88906428D01*
X135794761Y-88944523D01*
X136251904Y-89401666D01*
X136251904Y-88906428D01*
D12*
X140886666Y-90396190D02*
X140720000Y-90158095D01*
X140600952Y-90396190D02*
X140600952Y-89896190D01*
X140791428Y-89896190D01*
X140839047Y-89920000D01*
X140862857Y-89943809D01*
X140886666Y-89991428D01*
X140886666Y-90062857D01*
X140862857Y-90110476D01*
X140839047Y-90134285D01*
X140791428Y-90158095D01*
X140600952Y-90158095D01*
X141315238Y-90062857D02*
X141315238Y-90396190D01*
X141196190Y-89872380D02*
X141077142Y-90229523D01*
X141386666Y-90229523D01*
D11*
X132255238Y-92740476D02*
X132240000Y-92770952D01*
X132209523Y-92801428D01*
X132163809Y-92847142D01*
X132148571Y-92877619D01*
X132148571Y-92908095D01*
X132224761Y-92892857D02*
X132209523Y-92923333D01*
X132179047Y-92953809D01*
X132118095Y-92969047D01*
X132011428Y-92969047D01*
X131950476Y-92953809D01*
X131920000Y-92923333D01*
X131904761Y-92892857D01*
X131904761Y-92831904D01*
X131920000Y-92801428D01*
X131950476Y-92770952D01*
X132011428Y-92755714D01*
X132118095Y-92755714D01*
X132179047Y-92770952D01*
X132209523Y-92801428D01*
X132224761Y-92831904D01*
X132224761Y-92892857D01*
X131935238Y-92633809D02*
X131920000Y-92618571D01*
X131904761Y-92588095D01*
X131904761Y-92511904D01*
X131920000Y-92481428D01*
X131935238Y-92466190D01*
X131965714Y-92450952D01*
X131996190Y-92450952D01*
X132041904Y-92466190D01*
X132224761Y-92649047D01*
X132224761Y-92450952D01*
D15*
X143330000Y-93330000D02*
X145905000Y-93330000D01*
X145905000Y-93330000D02*
X146230000Y-93655000D01*
X143330000Y-94630000D02*
X143330000Y-93330000D01*
X146230000Y-94630000D02*
X143330000Y-94630000D01*
X146230000Y-93655000D02*
X146230000Y-94630000D01*
X139070000Y-107950000D02*
X140330000Y-107950000D01*
X139070000Y-110490000D02*
X139070000Y-107950000D01*
X140330000Y-107950000D02*
X140330000Y-110490000D01*
X140330000Y-110490000D02*
X139070000Y-110490000D01*
X144896000Y-100200000D02*
X146696000Y-100200000D01*
X146696000Y-100200000D02*
X146696000Y-103000000D01*
X145796000Y-101250000D02*
X146196000Y-101850000D01*
X145796000Y-101250000D02*
X145246000Y-101250000D01*
X145796000Y-101250000D02*
X146346000Y-101250000D01*
X145796000Y-101850000D02*
X145796000Y-102350000D01*
X145796000Y-100850000D02*
X145796000Y-101250000D01*
X144896000Y-103000000D02*
X144896000Y-100200000D01*
X145396000Y-101850000D02*
X145796000Y-101250000D01*
X146696000Y-103000000D02*
X144896000Y-103000000D01*
X146196000Y-101850000D02*
X145396000Y-101850000D01*
X147711000Y-98060000D02*
X148961000Y-98060000D01*
X148961000Y-98060000D02*
X148961000Y-100060000D01*
X147711000Y-100060000D02*
X147711000Y-98060000D01*
X148961000Y-100060000D02*
X147711000Y-100060000D01*
X145410000Y-107442000D02*
X144150000Y-107442000D01*
X145410000Y-104902000D02*
X145410000Y-107442000D01*
X144150000Y-107442000D02*
X144150000Y-104902000D01*
X144150000Y-104902000D02*
X145410000Y-104902000D01*
X137430000Y-94625000D02*
X139430000Y-94625000D01*
X139430000Y-95875000D02*
X137430000Y-95875000D01*
X137430000Y-95875000D02*
X137430000Y-94625000D01*
X139430000Y-94625000D02*
X139430000Y-95875000D01*
X136520000Y-110490000D02*
X135260000Y-110490000D01*
X135260000Y-110490000D02*
X135260000Y-107950000D01*
X135260000Y-107950000D02*
X136520000Y-107950000D01*
X136520000Y-107950000D02*
X136520000Y-110490000D01*
X137170000Y-104410000D02*
X138420000Y-104410000D01*
X138420000Y-104410000D02*
X138420000Y-106410000D01*
X138420000Y-106410000D02*
X137170000Y-106410000D01*
X137170000Y-106410000D02*
X137170000Y-104410000D01*
X128915000Y-101235000D02*
X130165000Y-101235000D01*
X130165000Y-103235000D02*
X128915000Y-103235000D01*
X128915000Y-103235000D02*
X128915000Y-101235000D01*
X130165000Y-101235000D02*
X130165000Y-103235000D01*
X127645000Y-96885000D02*
X127645000Y-94885000D01*
X128895000Y-94885000D02*
X128895000Y-96885000D01*
X128895000Y-96885000D02*
X127645000Y-96885000D01*
X127645000Y-94885000D02*
X128895000Y-94885000D01*
X141870000Y-103875000D02*
X142520000Y-104525000D01*
X142520000Y-105675000D02*
X139420000Y-105675000D01*
X142520000Y-105675000D02*
X142520000Y-104525000D01*
X141870000Y-103875000D02*
X139420000Y-103875000D01*
X139420000Y-105675000D02*
X139420000Y-103875000D01*
X132450000Y-105675000D02*
X134900000Y-105675000D01*
X132450000Y-105675000D02*
X131800000Y-105025000D01*
X131800000Y-103875000D02*
X131800000Y-105025000D01*
X131800000Y-103875000D02*
X134900000Y-103875000D01*
X134900000Y-103875000D02*
X134900000Y-105675000D01*
X130170000Y-107442000D02*
X128910000Y-107442000D01*
X130170000Y-104902000D02*
X130170000Y-107442000D01*
X128910000Y-104902000D02*
X130170000Y-104902000D01*
X128910000Y-107442000D02*
X128910000Y-104902000D01*
X136690000Y-91135000D02*
X135090000Y-91135000D01*
X136690000Y-87935000D02*
X136690000Y-91135000D01*
X135090000Y-87935000D02*
X136690000Y-87935000D01*
X135090000Y-91135000D02*
X135090000Y-87935000D01*
X139970000Y-90795000D02*
X139970000Y-89545000D01*
X139970000Y-89545000D02*
X141970000Y-89545000D01*
X141970000Y-90795000D02*
X139970000Y-90795000D01*
X141970000Y-89545000D02*
X141970000Y-90795000D01*
X133530000Y-93360000D02*
X130955000Y-93360000D01*
X130955000Y-93360000D02*
X130630000Y-93035000D01*
X133530000Y-92060000D02*
X133530000Y-93360000D01*
X130630000Y-92060000D02*
X133530000Y-92060000D01*
X130630000Y-93035000D02*
X130630000Y-92060000D01*
D16*
D15*
X145880000Y-92305000D02*
X145937403Y-92316418D01*
X145986066Y-92348934D01*
X146018582Y-92397597D01*
X146030000Y-92455000D01*
X146030000Y-93630000D01*
X146018582Y-93687403D01*
X145986066Y-93736066D01*
X145937403Y-93768582D01*
X145880000Y-93780000D01*
X145580000Y-93780000D01*
X145522597Y-93768582D01*
X145473934Y-93736066D01*
X145441418Y-93687403D01*
X145430000Y-93630000D01*
X145430000Y-92455000D01*
X145441418Y-92397597D01*
X145473934Y-92348934D01*
X145522597Y-92316418D01*
X145580000Y-92305000D01*
X145880000Y-92305000D01*
D16*
D15*
X143980000Y-92305000D02*
X144037403Y-92316418D01*
X144086066Y-92348934D01*
X144118582Y-92397597D01*
X144130000Y-92455000D01*
X144130000Y-93630000D01*
X144118582Y-93687403D01*
X144086066Y-93736066D01*
X144037403Y-93768582D01*
X143980000Y-93780000D01*
X143680000Y-93780000D01*
X143622597Y-93768582D01*
X143573934Y-93736066D01*
X143541418Y-93687403D01*
X143530000Y-93630000D01*
X143530000Y-92455000D01*
X143541418Y-92397597D01*
X143573934Y-92348934D01*
X143622597Y-92316418D01*
X143680000Y-92305000D01*
X143980000Y-92305000D01*
D16*
D15*
X144930000Y-94180000D02*
X144987403Y-94191418D01*
X145036066Y-94223934D01*
X145068582Y-94272597D01*
X145080000Y-94330000D01*
X145080000Y-95505000D01*
X145068582Y-95562403D01*
X145036066Y-95611066D01*
X144987403Y-95643582D01*
X144930000Y-95655000D01*
X144630000Y-95655000D01*
X144572597Y-95643582D01*
X144523934Y-95611066D01*
X144491418Y-95562403D01*
X144480000Y-95505000D01*
X144480000Y-94330000D01*
X144491418Y-94272597D01*
X144523934Y-94223934D01*
X144572597Y-94191418D01*
X144630000Y-94180000D01*
X144930000Y-94180000D01*
D16*
D15*
X138700000Y-108220000D02*
X138711664Y-108112632D01*
X138761427Y-107979888D01*
X138846447Y-107866447D01*
X138959888Y-107781427D01*
X139092632Y-107731664D01*
X139200000Y-107720000D01*
X140200000Y-107720000D01*
X140307368Y-107731664D01*
X140440112Y-107781427D01*
X140553553Y-107866447D01*
X140638573Y-107979888D01*
X140688336Y-108112632D01*
X140700000Y-108220000D01*
X140700000Y-110220000D01*
X140688336Y-110327368D01*
X140638573Y-110460112D01*
X140553553Y-110573553D01*
X140440112Y-110658573D01*
X140307368Y-110708336D01*
X140200000Y-110720000D01*
X139200000Y-110720000D01*
X139092632Y-110708336D01*
X138959888Y-110658573D01*
X138846447Y-110573553D01*
X138761427Y-110460112D01*
X138711664Y-110327368D01*
X138700000Y-110220000D01*
X138700000Y-108220000D01*
X145196000Y-99500000D02*
X145196000Y-100400000D01*
X146396000Y-100400000D01*
X146396000Y-99500000D01*
X145196000Y-99500000D01*
X145196000Y-102800000D02*
X145196000Y-103700000D01*
X146396000Y-103700000D01*
X146396000Y-102800000D01*
X145196000Y-102800000D01*
D16*
D15*
X148811000Y-97435000D02*
X148906671Y-97454030D01*
X148987777Y-97508223D01*
X149041970Y-97589329D01*
X149061000Y-97685000D01*
X149061000Y-98360000D01*
X149041970Y-98455671D01*
X148987777Y-98536777D01*
X148906671Y-98590970D01*
X148811000Y-98610000D01*
X147861000Y-98610000D01*
X147765329Y-98590970D01*
X147684223Y-98536777D01*
X147630030Y-98455671D01*
X147611000Y-98360000D01*
X147611000Y-97685000D01*
X147630030Y-97589329D01*
X147684223Y-97508223D01*
X147765329Y-97454030D01*
X147861000Y-97435000D01*
X148811000Y-97435000D01*
D16*
D15*
X148811000Y-99510000D02*
X148906671Y-99529030D01*
X148987777Y-99583223D01*
X149041970Y-99664329D01*
X149061000Y-99760000D01*
X149061000Y-100435000D01*
X149041970Y-100530671D01*
X148987777Y-100611777D01*
X148906671Y-100665970D01*
X148811000Y-100685000D01*
X147861000Y-100685000D01*
X147765329Y-100665970D01*
X147684223Y-100611777D01*
X147630030Y-100530671D01*
X147611000Y-100435000D01*
X147611000Y-99760000D01*
X147630030Y-99664329D01*
X147684223Y-99583223D01*
X147765329Y-99529030D01*
X147861000Y-99510000D01*
X148811000Y-99510000D01*
D16*
D15*
X145780000Y-107172000D02*
X145768336Y-107279368D01*
X145718573Y-107412112D01*
X145633553Y-107525553D01*
X145520112Y-107610573D01*
X145387368Y-107660336D01*
X145280000Y-107672000D01*
X144280000Y-107672000D01*
X144172632Y-107660336D01*
X144039888Y-107610573D01*
X143926447Y-107525553D01*
X143841427Y-107412112D01*
X143791664Y-107279368D01*
X143780000Y-107172000D01*
X143780000Y-105172000D01*
X143791664Y-105064632D01*
X143841427Y-104931888D01*
X143926447Y-104818447D01*
X144039888Y-104733427D01*
X144172632Y-104683664D01*
X144280000Y-104672000D01*
X145280000Y-104672000D01*
X145387368Y-104683664D01*
X145520112Y-104733427D01*
X145633553Y-104818447D01*
X145718573Y-104931888D01*
X145768336Y-105064632D01*
X145780000Y-105172000D01*
X145780000Y-107172000D01*
D16*
D15*
X140055000Y-95725000D02*
X140035970Y-95820671D01*
X139981777Y-95901777D01*
X139900671Y-95955970D01*
X139805000Y-95975000D01*
X139130000Y-95975000D01*
X139034329Y-95955970D01*
X138953223Y-95901777D01*
X138899030Y-95820671D01*
X138880000Y-95725000D01*
X138880000Y-94775000D01*
X138899030Y-94679329D01*
X138953223Y-94598223D01*
X139034329Y-94544030D01*
X139130000Y-94525000D01*
X139805000Y-94525000D01*
X139900671Y-94544030D01*
X139981777Y-94598223D01*
X140035970Y-94679329D01*
X140055000Y-94775000D01*
X140055000Y-95725000D01*
D16*
D15*
X137980000Y-95725000D02*
X137960970Y-95820671D01*
X137906777Y-95901777D01*
X137825671Y-95955970D01*
X137730000Y-95975000D01*
X137055000Y-95975000D01*
X136959329Y-95955970D01*
X136878223Y-95901777D01*
X136824030Y-95820671D01*
X136805000Y-95725000D01*
X136805000Y-94775000D01*
X136824030Y-94679329D01*
X136878223Y-94598223D01*
X136959329Y-94544030D01*
X137055000Y-94525000D01*
X137730000Y-94525000D01*
X137825671Y-94544030D01*
X137906777Y-94598223D01*
X137960970Y-94679329D01*
X137980000Y-94775000D01*
X137980000Y-95725000D01*
D16*
D15*
X134890000Y-108220000D02*
X134901664Y-108112632D01*
X134951427Y-107979888D01*
X135036447Y-107866447D01*
X135149888Y-107781427D01*
X135282632Y-107731664D01*
X135390000Y-107720000D01*
X136390000Y-107720000D01*
X136497368Y-107731664D01*
X136630112Y-107781427D01*
X136743553Y-107866447D01*
X136828573Y-107979888D01*
X136878336Y-108112632D01*
X136890000Y-108220000D01*
X136890000Y-110220000D01*
X136878336Y-110327368D01*
X136828573Y-110460112D01*
X136743553Y-110573553D01*
X136630112Y-110658573D01*
X136497368Y-110708336D01*
X136390000Y-110720000D01*
X135390000Y-110720000D01*
X135282632Y-110708336D01*
X135149888Y-110658573D01*
X135036447Y-110573553D01*
X134951427Y-110460112D01*
X134901664Y-110327368D01*
X134890000Y-110220000D01*
X134890000Y-108220000D01*
D16*
D15*
X137320000Y-107035000D02*
X137224329Y-107015970D01*
X137143223Y-106961777D01*
X137089030Y-106880671D01*
X137070000Y-106785000D01*
X137070000Y-106110000D01*
X137089030Y-106014329D01*
X137143223Y-105933223D01*
X137224329Y-105879030D01*
X137320000Y-105860000D01*
X138270000Y-105860000D01*
X138365671Y-105879030D01*
X138446777Y-105933223D01*
X138500970Y-106014329D01*
X138520000Y-106110000D01*
X138520000Y-106785000D01*
X138500970Y-106880671D01*
X138446777Y-106961777D01*
X138365671Y-107015970D01*
X138270000Y-107035000D01*
X137320000Y-107035000D01*
D16*
D15*
X137320000Y-104960000D02*
X137224329Y-104940970D01*
X137143223Y-104886777D01*
X137089030Y-104805671D01*
X137070000Y-104710000D01*
X137070000Y-104035000D01*
X137089030Y-103939329D01*
X137143223Y-103858223D01*
X137224329Y-103804030D01*
X137320000Y-103785000D01*
X138270000Y-103785000D01*
X138365671Y-103804030D01*
X138446777Y-103858223D01*
X138500970Y-103939329D01*
X138520000Y-104035000D01*
X138520000Y-104710000D01*
X138500970Y-104805671D01*
X138446777Y-104886777D01*
X138365671Y-104940970D01*
X138270000Y-104960000D01*
X137320000Y-104960000D01*
D16*
D15*
X129065000Y-103860000D02*
X128969329Y-103840970D01*
X128888223Y-103786777D01*
X128834030Y-103705671D01*
X128815000Y-103610000D01*
X128815000Y-102935000D01*
X128834030Y-102839329D01*
X128888223Y-102758223D01*
X128969329Y-102704030D01*
X129065000Y-102685000D01*
X130015000Y-102685000D01*
X130110671Y-102704030D01*
X130191777Y-102758223D01*
X130245970Y-102839329D01*
X130265000Y-102935000D01*
X130265000Y-103610000D01*
X130245970Y-103705671D01*
X130191777Y-103786777D01*
X130110671Y-103840970D01*
X130015000Y-103860000D01*
X129065000Y-103860000D01*
D16*
D15*
X129065000Y-101785000D02*
X128969329Y-101765970D01*
X128888223Y-101711777D01*
X128834030Y-101630671D01*
X128815000Y-101535000D01*
X128815000Y-100860000D01*
X128834030Y-100764329D01*
X128888223Y-100683223D01*
X128969329Y-100629030D01*
X129065000Y-100610000D01*
X130015000Y-100610000D01*
X130110671Y-100629030D01*
X130191777Y-100683223D01*
X130245970Y-100764329D01*
X130265000Y-100860000D01*
X130265000Y-101535000D01*
X130245970Y-101630671D01*
X130191777Y-101711777D01*
X130110671Y-101765970D01*
X130015000Y-101785000D01*
X129065000Y-101785000D01*
D16*
D15*
X128745000Y-94260000D02*
X128840671Y-94279030D01*
X128921777Y-94333223D01*
X128975970Y-94414329D01*
X128995000Y-94510000D01*
X128995000Y-95185000D01*
X128975970Y-95280671D01*
X128921777Y-95361777D01*
X128840671Y-95415970D01*
X128745000Y-95435000D01*
X127795000Y-95435000D01*
X127699329Y-95415970D01*
X127618223Y-95361777D01*
X127564030Y-95280671D01*
X127545000Y-95185000D01*
X127545000Y-94510000D01*
X127564030Y-94414329D01*
X127618223Y-94333223D01*
X127699329Y-94279030D01*
X127795000Y-94260000D01*
X128745000Y-94260000D01*
D16*
D15*
X128745000Y-96335000D02*
X128840671Y-96354030D01*
X128921777Y-96408223D01*
X128975970Y-96489329D01*
X128995000Y-96585000D01*
X128995000Y-97260000D01*
X128975970Y-97355671D01*
X128921777Y-97436777D01*
X128840671Y-97490970D01*
X128745000Y-97510000D01*
X127795000Y-97510000D01*
X127699329Y-97490970D01*
X127618223Y-97436777D01*
X127564030Y-97355671D01*
X127545000Y-97260000D01*
X127545000Y-96585000D01*
X127564030Y-96489329D01*
X127618223Y-96408223D01*
X127699329Y-96354030D01*
X127795000Y-96335000D01*
X128745000Y-96335000D01*
X141595000Y-102645000D02*
X141595000Y-104205000D01*
X142245000Y-104205000D01*
X142245000Y-102645000D01*
X141595000Y-102645000D01*
X140645000Y-102645000D02*
X140645000Y-104205000D01*
X141295000Y-104205000D01*
X141295000Y-102645000D01*
X140645000Y-102645000D01*
X139695000Y-102645000D02*
X139695000Y-104205000D01*
X140345000Y-104205000D01*
X140345000Y-102645000D01*
X139695000Y-102645000D01*
X139695000Y-105345000D02*
X139695000Y-106905000D01*
X140345000Y-106905000D01*
X140345000Y-105345000D01*
X139695000Y-105345000D01*
X141595000Y-105345000D02*
X141595000Y-106905000D01*
X142245000Y-106905000D01*
X142245000Y-105345000D01*
X141595000Y-105345000D01*
X132075000Y-105345000D02*
X132075000Y-106905000D01*
X132725000Y-106905000D01*
X132725000Y-105345000D01*
X132075000Y-105345000D01*
X133025000Y-105345000D02*
X133025000Y-106905000D01*
X133675000Y-106905000D01*
X133675000Y-105345000D01*
X133025000Y-105345000D01*
X133975000Y-105345000D02*
X133975000Y-106905000D01*
X134625000Y-106905000D01*
X134625000Y-105345000D01*
X133975000Y-105345000D01*
X133975000Y-102645000D02*
X133975000Y-104205000D01*
X134625000Y-104205000D01*
X134625000Y-102645000D01*
X133975000Y-102645000D01*
X132075000Y-102645000D02*
X132075000Y-104205000D01*
X132725000Y-104205000D01*
X132725000Y-102645000D01*
X132075000Y-102645000D01*
D16*
D15*
X128540000Y-105172000D02*
X128551664Y-105064632D01*
X128601427Y-104931888D01*
X128686447Y-104818447D01*
X128799888Y-104733427D01*
X128932632Y-104683664D01*
X129040000Y-104672000D01*
X130040000Y-104672000D01*
X130147368Y-104683664D01*
X130280112Y-104733427D01*
X130393553Y-104818447D01*
X130478573Y-104931888D01*
X130528336Y-105064632D01*
X130540000Y-105172000D01*
X130540000Y-107172000D01*
X130528336Y-107279368D01*
X130478573Y-107412112D01*
X130393553Y-107525553D01*
X130280112Y-107610573D01*
X130147368Y-107660336D01*
X130040000Y-107672000D01*
X129040000Y-107672000D01*
X128932632Y-107660336D01*
X128799888Y-107610573D01*
X128686447Y-107525553D01*
X128601427Y-107412112D01*
X128551664Y-107279368D01*
X128540000Y-107172000D01*
X128540000Y-105172000D01*
D16*
D15*
X135265000Y-91735000D02*
X135169329Y-91715970D01*
X135088223Y-91661777D01*
X135034030Y-91580671D01*
X135015000Y-91485000D01*
X135015000Y-90685000D01*
X135034030Y-90589329D01*
X135088223Y-90508223D01*
X135169329Y-90454030D01*
X135265000Y-90435000D01*
X136515000Y-90435000D01*
X136610671Y-90454030D01*
X136691777Y-90508223D01*
X136745970Y-90589329D01*
X136765000Y-90685000D01*
X136765000Y-91485000D01*
X136745970Y-91580671D01*
X136691777Y-91661777D01*
X136610671Y-91715970D01*
X136515000Y-91735000D01*
X135265000Y-91735000D01*
D16*
D15*
X135265000Y-88635000D02*
X135169329Y-88615970D01*
X135088223Y-88561777D01*
X135034030Y-88480671D01*
X135015000Y-88385000D01*
X135015000Y-87585000D01*
X135034030Y-87489329D01*
X135088223Y-87408223D01*
X135169329Y-87354030D01*
X135265000Y-87335000D01*
X136515000Y-87335000D01*
X136610671Y-87354030D01*
X136691777Y-87408223D01*
X136745970Y-87489329D01*
X136765000Y-87585000D01*
X136765000Y-88385000D01*
X136745970Y-88480671D01*
X136691777Y-88561777D01*
X136610671Y-88615970D01*
X136515000Y-88635000D01*
X135265000Y-88635000D01*
D16*
D15*
X139345000Y-89695000D02*
X139364030Y-89599329D01*
X139418223Y-89518223D01*
X139499329Y-89464030D01*
X139595000Y-89445000D01*
X140270000Y-89445000D01*
X140365671Y-89464030D01*
X140446777Y-89518223D01*
X140500970Y-89599329D01*
X140520000Y-89695000D01*
X140520000Y-90645000D01*
X140500970Y-90740671D01*
X140446777Y-90821777D01*
X140365671Y-90875970D01*
X140270000Y-90895000D01*
X139595000Y-90895000D01*
X139499329Y-90875970D01*
X139418223Y-90821777D01*
X139364030Y-90740671D01*
X139345000Y-90645000D01*
X139345000Y-89695000D01*
D16*
D15*
X141420000Y-89695000D02*
X141439030Y-89599329D01*
X141493223Y-89518223D01*
X141574329Y-89464030D01*
X141670000Y-89445000D01*
X142345000Y-89445000D01*
X142440671Y-89464030D01*
X142521777Y-89518223D01*
X142575970Y-89599329D01*
X142595000Y-89695000D01*
X142595000Y-90645000D01*
X142575970Y-90740671D01*
X142521777Y-90821777D01*
X142440671Y-90875970D01*
X142345000Y-90895000D01*
X141670000Y-90895000D01*
X141574329Y-90875970D01*
X141493223Y-90821777D01*
X141439030Y-90740671D01*
X141420000Y-90645000D01*
X141420000Y-89695000D01*
D16*
D15*
X130980000Y-94385000D02*
X130922597Y-94373582D01*
X130873934Y-94341066D01*
X130841418Y-94292403D01*
X130830000Y-94235000D01*
X130830000Y-93060000D01*
X130841418Y-93002597D01*
X130873934Y-92953934D01*
X130922597Y-92921418D01*
X130980000Y-92910000D01*
X131280000Y-92910000D01*
X131337403Y-92921418D01*
X131386066Y-92953934D01*
X131418582Y-93002597D01*
X131430000Y-93060000D01*
X131430000Y-94235000D01*
X131418582Y-94292403D01*
X131386066Y-94341066D01*
X131337403Y-94373582D01*
X131280000Y-94385000D01*
X130980000Y-94385000D01*
D16*
D15*
X132880000Y-94385000D02*
X132822597Y-94373582D01*
X132773934Y-94341066D01*
X132741418Y-94292403D01*
X132730000Y-94235000D01*
X132730000Y-93060000D01*
X132741418Y-93002597D01*
X132773934Y-92953934D01*
X132822597Y-92921418D01*
X132880000Y-92910000D01*
X133180000Y-92910000D01*
X133237403Y-92921418D01*
X133286066Y-92953934D01*
X133318582Y-93002597D01*
X133330000Y-93060000D01*
X133330000Y-94235000D01*
X133318582Y-94292403D01*
X133286066Y-94341066D01*
X133237403Y-94373582D01*
X133180000Y-94385000D01*
X132880000Y-94385000D01*
D16*
D15*
X131930000Y-92510000D02*
X131872597Y-92498582D01*
X131823934Y-92466066D01*
X131791418Y-92417403D01*
X131780000Y-92360000D01*
X131780000Y-91185000D01*
X131791418Y-91127597D01*
X131823934Y-91078934D01*
X131872597Y-91046418D01*
X131930000Y-91035000D01*
X132230000Y-91035000D01*
X132287403Y-91046418D01*
X132336066Y-91078934D01*
X132368582Y-91127597D01*
X132380000Y-91185000D01*
X132380000Y-92360000D01*
X132368582Y-92417403D01*
X132336066Y-92466066D01*
X132287403Y-92498582D01*
X132230000Y-92510000D01*
X131930000Y-92510000D01*
X133720000Y-98160000D02*
X133720000Y-99960000D01*
X135520000Y-99960000D01*
X135520000Y-98160000D01*
X133720000Y-98160000D01*
X132980000Y-99060000D02*
G75*
G03*
X132980000Y-99060000I-900000J0D01*
G01*
X141340000Y-98160000D02*
X141340000Y-99960000D01*
X143140000Y-99960000D01*
X143140000Y-98160000D01*
X141340000Y-98160000D01*
X140600000Y-99060000D02*
G75*
G03*
X140600000Y-99060000I-900000J0D01*
G01*
M02*
