G04 #@! TF.GenerationSoftware,KiCad,Pcbnew,6.0.8-f2edbf62ab~116~ubuntu20.04.1*
G04 #@! TF.CreationDate,2022-10-20T17:58:05+02:00*
G04 #@! TF.ProjectId,IR-Lese-Schreibkopf,49522d4c-6573-4652-9d53-636872656962,rev?*
G04 #@! TF.SameCoordinates,Original*
G04 #@! TF.FileFunction,Legend,Top*
G04 #@! TF.FilePolarity,Positive*
%FSLAX46Y46*%
G04 Gerber Fmt 4.6, Leading zero omitted, Abs format (unit mm)*
G04 Created by KiCad (PCBNEW 6.0.8-f2edbf62ab~116~ubuntu20.04.1) date 2022-10-20 17:58:05*
%MOMM*%
%LPD*%
G01*
G04 APERTURE LIST*
G04 #@! TA.AperFunction,Profile*
%ADD10C,0.200000*%
G04 #@! TD*
%ADD11C,0.100000*%
%ADD12C,0.080000*%
%ADD13C,0.120000*%
G04 APERTURE END LIST*
D10*
X150660000Y-99060000D02*
G75*
G03*
X150660000Y-99060000I-13500000J0D01*
G01*
D11*
X141224330Y-110716190D02*
X141087425Y-110478095D01*
X140938616Y-110716190D02*
X141001116Y-110216190D01*
X141191592Y-110216190D01*
X141236235Y-110240000D01*
X141257068Y-110263809D01*
X141274925Y-110311428D01*
X141265997Y-110382857D01*
X141236235Y-110430476D01*
X141209449Y-110454285D01*
X141158854Y-110478095D01*
X140968377Y-110478095D01*
X141453497Y-110216190D02*
X141724330Y-110716190D01*
X141786830Y-110216190D02*
X141390997Y-110716190D01*
X141914806Y-110716190D02*
X141977306Y-110216190D01*
X142096354Y-110216190D01*
X142164806Y-110240000D01*
X142206473Y-110287619D01*
X142224330Y-110335238D01*
X142236235Y-110430476D01*
X142227306Y-110501904D01*
X142191592Y-110597142D01*
X142161830Y-110644761D01*
X142108258Y-110692380D01*
X142033854Y-110716190D01*
X141914806Y-110716190D01*
X127266235Y-106430000D02*
X127221592Y-106406190D01*
X127150163Y-106406190D01*
X127075758Y-106430000D01*
X127022187Y-106477619D01*
X126992425Y-106525238D01*
X126956711Y-106620476D01*
X126947782Y-106691904D01*
X126959687Y-106787142D01*
X126977544Y-106834761D01*
X127019211Y-106882380D01*
X127087663Y-106906190D01*
X127135282Y-106906190D01*
X127209687Y-106882380D01*
X127236473Y-106858571D01*
X127257306Y-106691904D01*
X127162068Y-106691904D01*
X127444806Y-106906190D02*
X127507306Y-106406190D01*
X127730520Y-106906190D01*
X127793020Y-106406190D01*
X127968616Y-106906190D02*
X128031116Y-106406190D01*
X128150163Y-106406190D01*
X128218616Y-106430000D01*
X128260282Y-106477619D01*
X128278139Y-106525238D01*
X128290044Y-106620476D01*
X128281116Y-106691904D01*
X128245401Y-106787142D01*
X128215639Y-106834761D01*
X128162068Y-106882380D01*
X128087663Y-106906190D01*
X127968616Y-106906190D01*
X133369211Y-110216190D02*
X133654925Y-110216190D01*
X133449568Y-110716190D02*
X133512068Y-110216190D01*
X133773973Y-110216190D02*
X134044806Y-110716190D01*
X134107306Y-110216190D02*
X133711473Y-110716190D01*
X134235282Y-110716190D02*
X134297782Y-110216190D01*
X134416830Y-110216190D01*
X134485282Y-110240000D01*
X134526949Y-110287619D01*
X134544806Y-110335238D01*
X134556711Y-110430476D01*
X134547782Y-110501904D01*
X134512068Y-110597142D01*
X134482306Y-110644761D01*
X134428735Y-110692380D01*
X134354330Y-110716190D01*
X134235282Y-110716190D01*
X125255616Y-96751646D02*
X126010501Y-96713736D01*
X125514710Y-96987017D01*
X126097325Y-97206140D01*
X125342440Y-97244050D01*
X125460273Y-97912313D02*
X125855689Y-97892455D01*
X125921381Y-97853673D01*
X125944925Y-97781524D01*
X125920118Y-97640837D01*
X125871767Y-97572299D01*
X125496220Y-97910507D02*
X125447869Y-97841969D01*
X125416861Y-97666111D01*
X125440404Y-97593962D01*
X125506096Y-97555180D01*
X125577990Y-97551569D01*
X125656086Y-97583131D01*
X125704436Y-97651669D01*
X125735445Y-97827527D01*
X125783795Y-97896065D01*
X125578106Y-98580575D02*
X126332991Y-98542665D01*
X125614052Y-98578770D02*
X125565702Y-98510232D01*
X125540895Y-98369545D01*
X125564439Y-98297396D01*
X125594184Y-98260419D01*
X125659876Y-98221637D01*
X125875558Y-98210805D01*
X125953653Y-98242367D01*
X125995802Y-98275733D01*
X126044152Y-98344271D01*
X126068959Y-98484958D01*
X126045415Y-98557107D01*
X125725683Y-99211861D02*
X125677333Y-99143322D01*
X125652526Y-99002636D01*
X125676070Y-98930487D01*
X125741762Y-98891705D01*
X126029337Y-98877263D01*
X126107433Y-98908824D01*
X126155783Y-98977362D01*
X126180590Y-99118049D01*
X126157046Y-99190197D01*
X126091354Y-99228980D01*
X126019460Y-99232590D01*
X125885549Y-98884484D01*
X125850981Y-100128130D02*
X126605867Y-100090220D01*
X126318291Y-100104662D02*
X126366642Y-100173200D01*
X126391448Y-100313887D01*
X126367905Y-100386035D01*
X126338160Y-100423012D01*
X126272468Y-100461795D01*
X126056786Y-100472626D01*
X125978691Y-100441065D01*
X125936542Y-100407699D01*
X125888192Y-100339160D01*
X125863385Y-100198474D01*
X125886928Y-100126325D01*
X126459667Y-100700776D02*
X125987419Y-100901908D01*
X126521685Y-101052493D02*
X125987419Y-100901908D01*
X125795281Y-100840591D01*
X125753132Y-100807224D01*
X125704782Y-100738686D01*
X126167269Y-101921887D02*
X126922154Y-101883977D01*
X126426363Y-102157258D01*
X127008978Y-102376381D01*
X126254093Y-102414291D01*
X127058592Y-102657754D02*
X127139215Y-103114986D01*
X126808227Y-102883227D01*
X126826832Y-102988742D01*
X126803289Y-103060890D01*
X126773544Y-103097867D01*
X126707851Y-103136649D01*
X126528117Y-103145676D01*
X126450021Y-103114115D01*
X126407873Y-103080748D01*
X126359522Y-103012210D01*
X126322312Y-102801180D01*
X126345855Y-102729031D01*
X126375601Y-102692054D01*
X126469890Y-103432465D02*
X126452548Y-103539786D01*
X126483557Y-103715644D01*
X126531907Y-103784182D01*
X126574056Y-103817549D01*
X126652151Y-103849110D01*
X126724045Y-103845499D01*
X126789737Y-103806717D01*
X126819482Y-103769740D01*
X126843026Y-103697592D01*
X126854166Y-103555099D01*
X126877709Y-103482951D01*
X126907455Y-103445974D01*
X126973147Y-103407192D01*
X127045041Y-103403581D01*
X127123136Y-103435142D01*
X127165285Y-103468509D01*
X127213635Y-103537047D01*
X127244644Y-103712905D01*
X127227302Y-103820226D01*
X127306661Y-104064622D02*
X127393485Y-104557026D01*
X126582784Y-104278391D01*
X127172865Y-104745522D02*
X127222479Y-105026895D01*
X127443099Y-104838400D02*
X126796054Y-104870895D01*
X126730362Y-104909677D01*
X126706819Y-104981825D01*
X126719222Y-105052169D01*
X124488178Y-99353002D02*
X124804235Y-99088748D01*
X124413757Y-98930942D02*
X125168643Y-98893032D01*
X125218257Y-99174405D01*
X125194713Y-99246554D01*
X125164968Y-99283531D01*
X125099276Y-99322313D01*
X124991435Y-99327729D01*
X124913339Y-99296168D01*
X124871191Y-99262801D01*
X124822840Y-99194263D01*
X124773227Y-98912889D01*
X124629554Y-99949116D02*
X124581204Y-99880578D01*
X124556397Y-99739891D01*
X124579940Y-99667742D01*
X124645633Y-99628960D01*
X124933208Y-99614518D01*
X125011304Y-99646079D01*
X125059654Y-99714618D01*
X125084461Y-99855304D01*
X125060917Y-99927453D01*
X124995225Y-99966235D01*
X124923331Y-99969846D01*
X124789420Y-99621739D01*
X125146478Y-100207021D02*
X124674230Y-100408154D01*
X125208495Y-100558738D01*
X124826746Y-100861775D02*
X124797001Y-100898752D01*
X124754852Y-100865386D01*
X124784597Y-100828409D01*
X124826746Y-100861775D01*
X124754852Y-100865386D01*
X124984316Y-102166739D02*
X124909895Y-101744678D01*
X124947105Y-101955709D02*
X125701991Y-101917798D01*
X125581747Y-101852871D01*
X125497449Y-101786138D01*
X125449099Y-101717599D01*
X125112025Y-102479674D02*
X125082280Y-102516651D01*
X125040131Y-102483284D01*
X125069876Y-102446307D01*
X125112025Y-102479674D01*
X125040131Y-102483284D01*
X125881841Y-102937778D02*
X125894244Y-103008121D01*
X125870701Y-103080270D01*
X125840955Y-103117247D01*
X125775263Y-103156029D01*
X125637677Y-103198422D01*
X125457943Y-103207448D01*
X125307953Y-103179497D01*
X125229858Y-103147936D01*
X125187709Y-103114570D01*
X125139359Y-103046031D01*
X125126955Y-102975688D01*
X125150499Y-102903539D01*
X125180244Y-102866562D01*
X125245936Y-102827780D01*
X125383522Y-102785387D01*
X125563257Y-102776361D01*
X125713246Y-102804312D01*
X125791342Y-102835873D01*
X125833490Y-102869239D01*
X125881841Y-102937778D01*
X146033497Y-106406190D02*
X146137663Y-106906190D01*
X146366830Y-106406190D01*
X146470997Y-106906190D02*
X146533497Y-106406190D01*
X146652544Y-106406190D01*
X146720997Y-106430000D01*
X146762663Y-106477619D01*
X146780520Y-106525238D01*
X146792425Y-106620476D01*
X146783497Y-106691904D01*
X146747782Y-106787142D01*
X146718020Y-106834761D01*
X146664449Y-106882380D01*
X146590044Y-106906190D01*
X146470997Y-106906190D01*
X147262663Y-106858571D02*
X147235877Y-106882380D01*
X147161473Y-106906190D01*
X147113854Y-106906190D01*
X147045401Y-106882380D01*
X147003735Y-106834761D01*
X146985877Y-106787142D01*
X146973973Y-106691904D01*
X146982901Y-106620476D01*
X147018616Y-106525238D01*
X147048377Y-106477619D01*
X147101949Y-106430000D01*
X147176354Y-106406190D01*
X147223973Y-106406190D01*
X147292425Y-106430000D01*
X147313258Y-106453809D01*
X146002380Y-91713809D02*
X145954761Y-91690000D01*
X145907142Y-91642380D01*
X145835714Y-91570952D01*
X145788095Y-91547142D01*
X145740476Y-91547142D01*
X145764285Y-91666190D02*
X145716666Y-91642380D01*
X145669047Y-91594761D01*
X145645238Y-91499523D01*
X145645238Y-91332857D01*
X145669047Y-91237619D01*
X145716666Y-91190000D01*
X145764285Y-91166190D01*
X145859523Y-91166190D01*
X145907142Y-91190000D01*
X145954761Y-91237619D01*
X145978571Y-91332857D01*
X145978571Y-91499523D01*
X145954761Y-91594761D01*
X145907142Y-91642380D01*
X145859523Y-91666190D01*
X145764285Y-91666190D01*
X146145238Y-91166190D02*
X146454761Y-91166190D01*
X146288095Y-91356666D01*
X146359523Y-91356666D01*
X146407142Y-91380476D01*
X146430952Y-91404285D01*
X146454761Y-91451904D01*
X146454761Y-91570952D01*
X146430952Y-91618571D01*
X146407142Y-91642380D01*
X146359523Y-91666190D01*
X146216666Y-91666190D01*
X146169047Y-91642380D01*
X146145238Y-91618571D01*
D12*
X138771333Y-111232190D02*
X138771333Y-111589333D01*
X138747523Y-111660761D01*
X138699904Y-111708380D01*
X138628476Y-111732190D01*
X138580857Y-111732190D01*
X138985619Y-111279809D02*
X139009428Y-111256000D01*
X139057047Y-111232190D01*
X139176095Y-111232190D01*
X139223714Y-111256000D01*
X139247523Y-111279809D01*
X139271333Y-111327428D01*
X139271333Y-111375047D01*
X139247523Y-111446476D01*
X138961809Y-111732190D01*
X139271333Y-111732190D01*
D11*
X145426952Y-98651190D02*
X145426952Y-98151190D01*
X145546000Y-98151190D01*
X145617428Y-98175000D01*
X145665047Y-98222619D01*
X145688857Y-98270238D01*
X145712666Y-98365476D01*
X145712666Y-98436904D01*
X145688857Y-98532142D01*
X145665047Y-98579761D01*
X145617428Y-98627380D01*
X145546000Y-98651190D01*
X145426952Y-98651190D01*
X145903142Y-98198809D02*
X145926952Y-98175000D01*
X145974571Y-98151190D01*
X146093619Y-98151190D01*
X146141238Y-98175000D01*
X146165047Y-98198809D01*
X146188857Y-98246428D01*
X146188857Y-98294047D01*
X146165047Y-98365476D01*
X145879333Y-98651190D01*
X146188857Y-98651190D01*
X149014666Y-97000190D02*
X148848000Y-96762095D01*
X148728952Y-97000190D02*
X148728952Y-96500190D01*
X148919428Y-96500190D01*
X148967047Y-96524000D01*
X148990857Y-96547809D01*
X149014666Y-96595428D01*
X149014666Y-96666857D01*
X148990857Y-96714476D01*
X148967047Y-96738285D01*
X148919428Y-96762095D01*
X148728952Y-96762095D01*
X149490857Y-97000190D02*
X149205142Y-97000190D01*
X149348000Y-97000190D02*
X149348000Y-96500190D01*
X149300380Y-96571619D01*
X149252761Y-96619238D01*
X149205142Y-96643047D01*
D12*
X144613333Y-108438190D02*
X144613333Y-108795333D01*
X144589523Y-108866761D01*
X144541904Y-108914380D01*
X144470476Y-108938190D01*
X144422857Y-108938190D01*
X145113333Y-108938190D02*
X144827619Y-108938190D01*
X144970476Y-108938190D02*
X144970476Y-108438190D01*
X144922857Y-108509619D01*
X144875238Y-108557238D01*
X144827619Y-108581047D01*
D11*
X138346666Y-93396571D02*
X138322857Y-93420380D01*
X138251428Y-93444190D01*
X138203809Y-93444190D01*
X138132380Y-93420380D01*
X138084761Y-93372761D01*
X138060952Y-93325142D01*
X138037142Y-93229904D01*
X138037142Y-93158476D01*
X138060952Y-93063238D01*
X138084761Y-93015619D01*
X138132380Y-92968000D01*
X138203809Y-92944190D01*
X138251428Y-92944190D01*
X138322857Y-92968000D01*
X138346666Y-92991809D01*
X138822857Y-93444190D02*
X138537142Y-93444190D01*
X138680000Y-93444190D02*
X138680000Y-92944190D01*
X138632380Y-93015619D01*
X138584761Y-93063238D01*
X138537142Y-93087047D01*
D12*
X136231333Y-111232190D02*
X136231333Y-111589333D01*
X136207523Y-111660761D01*
X136159904Y-111708380D01*
X136088476Y-111732190D01*
X136040857Y-111732190D01*
X136421809Y-111232190D02*
X136731333Y-111232190D01*
X136564666Y-111422666D01*
X136636095Y-111422666D01*
X136683714Y-111446476D01*
X136707523Y-111470285D01*
X136731333Y-111517904D01*
X136731333Y-111636952D01*
X136707523Y-111684571D01*
X136683714Y-111708380D01*
X136636095Y-111732190D01*
X136493238Y-111732190D01*
X136445619Y-111708380D01*
X136421809Y-111684571D01*
D11*
X137711666Y-108128571D02*
X137687857Y-108152380D01*
X137616428Y-108176190D01*
X137568809Y-108176190D01*
X137497380Y-108152380D01*
X137449761Y-108104761D01*
X137425952Y-108057142D01*
X137402142Y-107961904D01*
X137402142Y-107890476D01*
X137425952Y-107795238D01*
X137449761Y-107747619D01*
X137497380Y-107700000D01*
X137568809Y-107676190D01*
X137616428Y-107676190D01*
X137687857Y-107700000D01*
X137711666Y-107723809D01*
X137878333Y-107676190D02*
X138187857Y-107676190D01*
X138021190Y-107866666D01*
X138092619Y-107866666D01*
X138140238Y-107890476D01*
X138164047Y-107914285D01*
X138187857Y-107961904D01*
X138187857Y-108080952D01*
X138164047Y-108128571D01*
X138140238Y-108152380D01*
X138092619Y-108176190D01*
X137949761Y-108176190D01*
X137902142Y-108152380D01*
X137878333Y-108128571D01*
X129456666Y-99873571D02*
X129432857Y-99897380D01*
X129361428Y-99921190D01*
X129313809Y-99921190D01*
X129242380Y-99897380D01*
X129194761Y-99849761D01*
X129170952Y-99802142D01*
X129147142Y-99706904D01*
X129147142Y-99635476D01*
X129170952Y-99540238D01*
X129194761Y-99492619D01*
X129242380Y-99445000D01*
X129313809Y-99421190D01*
X129361428Y-99421190D01*
X129432857Y-99445000D01*
X129456666Y-99468809D01*
X129647142Y-99468809D02*
X129670952Y-99445000D01*
X129718571Y-99421190D01*
X129837619Y-99421190D01*
X129885238Y-99445000D01*
X129909047Y-99468809D01*
X129932857Y-99516428D01*
X129932857Y-99564047D01*
X129909047Y-99635476D01*
X129623333Y-99921190D01*
X129932857Y-99921190D01*
X127678666Y-93698190D02*
X127512000Y-93460095D01*
X127392952Y-93698190D02*
X127392952Y-93198190D01*
X127583428Y-93198190D01*
X127631047Y-93222000D01*
X127654857Y-93245809D01*
X127678666Y-93293428D01*
X127678666Y-93364857D01*
X127654857Y-93412476D01*
X127631047Y-93436285D01*
X127583428Y-93460095D01*
X127392952Y-93460095D01*
X127845333Y-93198190D02*
X128154857Y-93198190D01*
X127988190Y-93388666D01*
X128059619Y-93388666D01*
X128107238Y-93412476D01*
X128131047Y-93436285D01*
X128154857Y-93483904D01*
X128154857Y-93602952D01*
X128131047Y-93650571D01*
X128107238Y-93674380D01*
X128059619Y-93698190D01*
X127916761Y-93698190D01*
X127869142Y-93674380D01*
X127845333Y-93650571D01*
X142199047Y-107676190D02*
X142199047Y-108080952D01*
X142222857Y-108128571D01*
X142246666Y-108152380D01*
X142294285Y-108176190D01*
X142389523Y-108176190D01*
X142437142Y-108152380D01*
X142460952Y-108128571D01*
X142484761Y-108080952D01*
X142484761Y-107676190D01*
X142699047Y-107723809D02*
X142722857Y-107700000D01*
X142770476Y-107676190D01*
X142889523Y-107676190D01*
X142937142Y-107700000D01*
X142960952Y-107723809D01*
X142984761Y-107771428D01*
X142984761Y-107819047D01*
X142960952Y-107890476D01*
X142675238Y-108176190D01*
X142984761Y-108176190D01*
X131699047Y-107676190D02*
X131699047Y-108080952D01*
X131722857Y-108128571D01*
X131746666Y-108152380D01*
X131794285Y-108176190D01*
X131889523Y-108176190D01*
X131937142Y-108152380D01*
X131960952Y-108128571D01*
X131984761Y-108080952D01*
X131984761Y-107676190D01*
X132484761Y-108176190D02*
X132199047Y-108176190D01*
X132341904Y-108176190D02*
X132341904Y-107676190D01*
X132294285Y-107747619D01*
X132246666Y-107795238D01*
X132199047Y-107819047D01*
D12*
X129388497Y-108438190D02*
X129343854Y-108795333D01*
X129311116Y-108866761D01*
X129257544Y-108914380D01*
X129183139Y-108938190D01*
X129135520Y-108938190D01*
X129820044Y-108604857D02*
X129778377Y-108938190D01*
X129724806Y-108414380D02*
X129561116Y-108771523D01*
X129870639Y-108771523D01*
D11*
X137076666Y-86840190D02*
X136910000Y-86602095D01*
X136790952Y-86840190D02*
X136790952Y-86340190D01*
X136981428Y-86340190D01*
X137029047Y-86364000D01*
X137052857Y-86387809D01*
X137076666Y-86435428D01*
X137076666Y-86506857D01*
X137052857Y-86554476D01*
X137029047Y-86578285D01*
X136981428Y-86602095D01*
X136790952Y-86602095D01*
X137267142Y-86387809D02*
X137290952Y-86364000D01*
X137338571Y-86340190D01*
X137457619Y-86340190D01*
X137505238Y-86364000D01*
X137529047Y-86387809D01*
X137552857Y-86435428D01*
X137552857Y-86483047D01*
X137529047Y-86554476D01*
X137243333Y-86840190D01*
X137552857Y-86840190D01*
X140886666Y-88716190D02*
X140720000Y-88478095D01*
X140600952Y-88716190D02*
X140600952Y-88216190D01*
X140791428Y-88216190D01*
X140839047Y-88240000D01*
X140862857Y-88263809D01*
X140886666Y-88311428D01*
X140886666Y-88382857D01*
X140862857Y-88430476D01*
X140839047Y-88454285D01*
X140791428Y-88478095D01*
X140600952Y-88478095D01*
X141315238Y-88382857D02*
X141315238Y-88716190D01*
X141196190Y-88192380D02*
X141077142Y-88549523D01*
X141386666Y-88549523D01*
X130762380Y-90443809D02*
X130714761Y-90420000D01*
X130667142Y-90372380D01*
X130595714Y-90300952D01*
X130548095Y-90277142D01*
X130500476Y-90277142D01*
X130524285Y-90396190D02*
X130476666Y-90372380D01*
X130429047Y-90324761D01*
X130405238Y-90229523D01*
X130405238Y-90062857D01*
X130429047Y-89967619D01*
X130476666Y-89920000D01*
X130524285Y-89896190D01*
X130619523Y-89896190D01*
X130667142Y-89920000D01*
X130714761Y-89967619D01*
X130738571Y-90062857D01*
X130738571Y-90229523D01*
X130714761Y-90324761D01*
X130667142Y-90372380D01*
X130619523Y-90396190D01*
X130524285Y-90396190D01*
X130929047Y-89943809D02*
X130952857Y-89920000D01*
X131000476Y-89896190D01*
X131119523Y-89896190D01*
X131167142Y-89920000D01*
X131190952Y-89943809D01*
X131214761Y-89991428D01*
X131214761Y-90039047D01*
X131190952Y-90110476D01*
X130905238Y-90396190D01*
X131214761Y-90396190D01*
X132980952Y-97000190D02*
X132980952Y-96500190D01*
X133100000Y-96500190D01*
X133171428Y-96524000D01*
X133219047Y-96571619D01*
X133242857Y-96619238D01*
X133266666Y-96714476D01*
X133266666Y-96785904D01*
X133242857Y-96881142D01*
X133219047Y-96928761D01*
X133171428Y-96976380D01*
X133100000Y-97000190D01*
X132980952Y-97000190D01*
X133742857Y-97000190D02*
X133457142Y-97000190D01*
X133600000Y-97000190D02*
X133600000Y-96500190D01*
X133552380Y-96571619D01*
X133504761Y-96619238D01*
X133457142Y-96643047D01*
X139398380Y-97301809D02*
X139350761Y-97278000D01*
X139303142Y-97230380D01*
X139231714Y-97158952D01*
X139184095Y-97135142D01*
X139136476Y-97135142D01*
X139160285Y-97254190D02*
X139112666Y-97230380D01*
X139065047Y-97182761D01*
X139041238Y-97087523D01*
X139041238Y-96920857D01*
X139065047Y-96825619D01*
X139112666Y-96778000D01*
X139160285Y-96754190D01*
X139255523Y-96754190D01*
X139303142Y-96778000D01*
X139350761Y-96825619D01*
X139374571Y-96920857D01*
X139374571Y-97087523D01*
X139350761Y-97182761D01*
X139303142Y-97230380D01*
X139255523Y-97254190D01*
X139160285Y-97254190D01*
X139850761Y-97254190D02*
X139565047Y-97254190D01*
X139707904Y-97254190D02*
X139707904Y-96754190D01*
X139660285Y-96825619D01*
X139612666Y-96873238D01*
X139565047Y-96897047D01*
D13*
X146340000Y-93980000D02*
X146340000Y-94630000D01*
X146340000Y-93980000D02*
X146340000Y-92305000D01*
X143220000Y-93980000D02*
X143220000Y-94630000D01*
X143220000Y-93980000D02*
X143220000Y-93330000D01*
X146796000Y-99350000D02*
X146796000Y-103250000D01*
X146796000Y-99350000D02*
X144796000Y-99350000D01*
X144796000Y-99350000D02*
X144796000Y-103250000D01*
X147601000Y-98798748D02*
X147601000Y-99321252D01*
X149071000Y-98798748D02*
X149071000Y-99321252D01*
X138691252Y-95985000D02*
X138168748Y-95985000D01*
X138691252Y-94515000D02*
X138168748Y-94515000D01*
X137060000Y-105671252D02*
X137060000Y-105148748D01*
X138530000Y-105671252D02*
X138530000Y-105148748D01*
X128805000Y-102496252D02*
X128805000Y-101973748D01*
X130275000Y-102496252D02*
X130275000Y-101973748D01*
X129005000Y-95623748D02*
X129005000Y-96146252D01*
X127535000Y-95623748D02*
X127535000Y-96146252D01*
X139360000Y-103875000D02*
X139360000Y-105675000D01*
X142580000Y-105675000D02*
X142580000Y-103225000D01*
X134960000Y-105675000D02*
X134960000Y-103875000D01*
X131740000Y-103875000D02*
X131740000Y-106325000D01*
X136800000Y-90262064D02*
X136800000Y-88807936D01*
X134980000Y-90262064D02*
X134980000Y-88807936D01*
X140708748Y-90905000D02*
X141231252Y-90905000D01*
X140708748Y-89435000D02*
X141231252Y-89435000D01*
X130520000Y-92710000D02*
X130520000Y-94385000D01*
X130520000Y-92710000D02*
X130520000Y-92060000D01*
X133640000Y-92710000D02*
X133640000Y-92060000D01*
X133640000Y-92710000D02*
X133640000Y-93360000D01*
M02*
