G04 #@! TF.GenerationSoftware,KiCad,Pcbnew,6.0.8-f2edbf62ab~116~ubuntu20.04.1*
G04 #@! TF.CreationDate,2022-10-20T17:58:05+02:00*
G04 #@! TF.ProjectId,IR-Lese-Schreibkopf,49522d4c-6573-4652-9d53-636872656962,rev?*
G04 #@! TF.SameCoordinates,Original*
G04 #@! TF.FileFunction,Copper,L1,Top*
G04 #@! TF.FilePolarity,Positive*
%FSLAX46Y46*%
G04 Gerber Fmt 4.6, Leading zero omitted, Abs format (unit mm)*
G04 Created by KiCad (PCBNEW 6.0.8-f2edbf62ab~116~ubuntu20.04.1) date 2022-10-20 17:58:05*
%MOMM*%
%LPD*%
G01*
G04 APERTURE LIST*
G04 Aperture macros list*
%AMRoundRect*
0 Rectangle with rounded corners*
0 $1 Rounding radius*
0 $2 $3 $4 $5 $6 $7 $8 $9 X,Y pos of 4 corners*
0 Add a 4 corners polygon primitive as box body*
4,1,4,$2,$3,$4,$5,$6,$7,$8,$9,$2,$3,0*
0 Add four circle primitives for the rounded corners*
1,1,$1+$1,$2,$3*
1,1,$1+$1,$4,$5*
1,1,$1+$1,$6,$7*
1,1,$1+$1,$8,$9*
0 Add four rect primitives between the rounded corners*
20,1,$1+$1,$2,$3,$4,$5,0*
20,1,$1+$1,$4,$5,$6,$7,0*
20,1,$1+$1,$6,$7,$8,$9,0*
20,1,$1+$1,$8,$9,$2,$3,0*%
G04 Aperture macros list end*
G04 #@! TA.AperFunction,Profile*
%ADD10C,0.200000*%
G04 #@! TD*
G04 #@! TA.AperFunction,SMDPad,CuDef*
%ADD11RoundRect,0.150000X-0.150000X0.587500X-0.150000X-0.587500X0.150000X-0.587500X0.150000X0.587500X0*%
G04 #@! TD*
G04 #@! TA.AperFunction,SMDPad,CuDef*
%ADD12RoundRect,0.500000X-0.500000X-1.000000X0.500000X-1.000000X0.500000X1.000000X-0.500000X1.000000X0*%
G04 #@! TD*
G04 #@! TA.AperFunction,SMDPad,CuDef*
%ADD13R,1.200000X0.900000*%
G04 #@! TD*
G04 #@! TA.AperFunction,SMDPad,CuDef*
%ADD14RoundRect,0.250000X-0.475000X0.337500X-0.475000X-0.337500X0.475000X-0.337500X0.475000X0.337500X0*%
G04 #@! TD*
G04 #@! TA.AperFunction,SMDPad,CuDef*
%ADD15RoundRect,0.500000X0.500000X1.000000X-0.500000X1.000000X-0.500000X-1.000000X0.500000X-1.000000X0*%
G04 #@! TD*
G04 #@! TA.AperFunction,SMDPad,CuDef*
%ADD16RoundRect,0.250000X0.337500X0.475000X-0.337500X0.475000X-0.337500X-0.475000X0.337500X-0.475000X0*%
G04 #@! TD*
G04 #@! TA.AperFunction,SMDPad,CuDef*
%ADD17RoundRect,0.250000X0.475000X-0.337500X0.475000X0.337500X-0.475000X0.337500X-0.475000X-0.337500X0*%
G04 #@! TD*
G04 #@! TA.AperFunction,SMDPad,CuDef*
%ADD18R,0.650000X1.560000*%
G04 #@! TD*
G04 #@! TA.AperFunction,SMDPad,CuDef*
%ADD19RoundRect,0.250000X0.625000X-0.400000X0.625000X0.400000X-0.625000X0.400000X-0.625000X-0.400000X0*%
G04 #@! TD*
G04 #@! TA.AperFunction,SMDPad,CuDef*
%ADD20RoundRect,0.250000X-0.337500X-0.475000X0.337500X-0.475000X0.337500X0.475000X-0.337500X0.475000X0*%
G04 #@! TD*
G04 #@! TA.AperFunction,SMDPad,CuDef*
%ADD21RoundRect,0.150000X0.150000X-0.587500X0.150000X0.587500X-0.150000X0.587500X-0.150000X-0.587500X0*%
G04 #@! TD*
G04 #@! TA.AperFunction,ComponentPad*
%ADD22R,1.800000X1.800000*%
G04 #@! TD*
G04 #@! TA.AperFunction,ComponentPad*
%ADD23C,1.800000*%
G04 #@! TD*
G04 #@! TA.AperFunction,ViaPad*
%ADD24C,0.800000*%
G04 #@! TD*
G04 #@! TA.AperFunction,Conductor*
%ADD25C,0.250000*%
G04 #@! TD*
G04 #@! TA.AperFunction,Conductor*
%ADD26C,0.500000*%
G04 #@! TD*
G04 APERTURE END LIST*
D10*
X150660000Y-99060000D02*
G75*
G03*
X150660000Y-99060000I-13500000J0D01*
G01*
D11*
X145730000Y-93042500D03*
X143830000Y-93042500D03*
X144780000Y-94917500D03*
D12*
X139700000Y-109220000D03*
D13*
X145796000Y-99950000D03*
X145796000Y-103250000D03*
D14*
X148336000Y-98022500D03*
X148336000Y-100097500D03*
D15*
X144780000Y-106172000D03*
D16*
X139467500Y-95250000D03*
X137392500Y-95250000D03*
D12*
X135890000Y-109220000D03*
D17*
X137795000Y-106447500D03*
X137795000Y-104372500D03*
X129540000Y-103272500D03*
X129540000Y-101197500D03*
D14*
X128270000Y-94847500D03*
X128270000Y-96922500D03*
D18*
X141920000Y-103425000D03*
X140970000Y-103425000D03*
X140020000Y-103425000D03*
X140020000Y-106125000D03*
X141920000Y-106125000D03*
X132400000Y-106125000D03*
X133350000Y-106125000D03*
X134300000Y-106125000D03*
X134300000Y-103425000D03*
X132400000Y-103425000D03*
D12*
X129540000Y-106172000D03*
D19*
X135890000Y-91085000D03*
X135890000Y-87985000D03*
D20*
X139932500Y-90170000D03*
X142007500Y-90170000D03*
D21*
X131130000Y-93647500D03*
X133030000Y-93647500D03*
X132080000Y-91772500D03*
D22*
X134620000Y-99060000D03*
D23*
X132080000Y-99060000D03*
D22*
X142240000Y-99060000D03*
D23*
X139700000Y-99060000D03*
D24*
X135890000Y-92710000D03*
X134620000Y-95250000D03*
X141478000Y-96266000D03*
X145796000Y-95250000D03*
X143764000Y-103124000D03*
X144145000Y-97790000D03*
X145415000Y-90170000D03*
X141732000Y-94234000D03*
X133350000Y-87630000D03*
X132080000Y-89535000D03*
X137160000Y-102870000D03*
X127635000Y-101854000D03*
X132715000Y-109855000D03*
X148590000Y-102870000D03*
X129032000Y-91186000D03*
X141986000Y-109474000D03*
X128016000Y-92202000D03*
X131318000Y-108966000D03*
X139065000Y-87630000D03*
X127635000Y-99695000D03*
X146050000Y-97155000D03*
X147320000Y-105410000D03*
X141732000Y-92710000D03*
X143510000Y-108966000D03*
X137160000Y-97155000D03*
X137160000Y-99695000D03*
X138430000Y-102870000D03*
X135890000Y-106426000D03*
D25*
X135890000Y-91085000D02*
X135890000Y-92710000D01*
X134620000Y-95250000D02*
X134620000Y-99060000D01*
X132080000Y-91772500D02*
X132080000Y-99060000D01*
X141986000Y-95250000D02*
X139467500Y-95250000D01*
D26*
X144525000Y-99950000D02*
X145415000Y-99950000D01*
X135890000Y-104140000D02*
X135890000Y-102235000D01*
D25*
X139467500Y-104775000D02*
X137795000Y-106447500D01*
X136122500Y-104775000D02*
X135890000Y-104775000D01*
X142494000Y-95758000D02*
X141986000Y-95250000D01*
X143256000Y-101600000D02*
X142240000Y-100584000D01*
X129692500Y-103425000D02*
X132400000Y-103425000D01*
X142240000Y-99060000D02*
X142494000Y-98806000D01*
X133030000Y-93647500D02*
X137865000Y-93647500D01*
X139700000Y-95482500D02*
X139467500Y-95250000D01*
X141920000Y-105725000D02*
X140970000Y-104775000D01*
X131042500Y-104775000D02*
X129540000Y-103272500D01*
X140970000Y-104775000D02*
X139467500Y-104775000D01*
X139932500Y-90170000D02*
X139932500Y-91715500D01*
D26*
X143510000Y-101600000D02*
X144525000Y-99950000D01*
D25*
X139700000Y-91948000D02*
X139700000Y-95504000D01*
X141920000Y-106125000D02*
X141920000Y-105725000D01*
X142240000Y-100584000D02*
X142240000Y-99060000D01*
D26*
X140335000Y-101600000D02*
X143256000Y-101600000D01*
D25*
X142494000Y-98806000D02*
X142494000Y-95758000D01*
X139932500Y-91715500D02*
X139700000Y-91948000D01*
D26*
X135890000Y-104775000D02*
X135890000Y-104140000D01*
X143256000Y-101600000D02*
X143510000Y-101600000D01*
X135890000Y-102235000D02*
X136525000Y-101600000D01*
X136525000Y-101600000D02*
X140335000Y-101600000D01*
D25*
X137795000Y-106447500D02*
X136122500Y-104775000D01*
X135890000Y-104775000D02*
X131042500Y-104775000D01*
X137865000Y-93647500D02*
X139467500Y-95250000D01*
X140020000Y-108900000D02*
X140020000Y-106125000D01*
X139700000Y-109220000D02*
X140020000Y-108900000D01*
X135382000Y-109220000D02*
X133350000Y-107188000D01*
X133350000Y-107188000D02*
X133350000Y-106125000D01*
X135890000Y-109220000D02*
X135382000Y-109220000D01*
X145796000Y-93108500D02*
X145730000Y-93042500D01*
X148336000Y-95504000D02*
X148336000Y-98022500D01*
X145730000Y-93042500D02*
X145874500Y-93042500D01*
X141478000Y-96266000D02*
X141478000Y-97282000D01*
X145874500Y-93042500D02*
X148336000Y-95504000D01*
X145796000Y-95250000D02*
X145796000Y-93108500D01*
X141478000Y-97282000D02*
X139700000Y-99060000D01*
X129470000Y-93647500D02*
X128270000Y-94847500D01*
X131130000Y-93647500D02*
X129470000Y-93647500D01*
X144145000Y-97790000D02*
X144780000Y-97155000D01*
X142532500Y-90170000D02*
X143510000Y-90170000D01*
X143764000Y-103124000D02*
X142960000Y-102320000D01*
X143510000Y-90170000D02*
X144780000Y-91440000D01*
X142960000Y-102320000D02*
X141270000Y-102320000D01*
X144780000Y-91440000D02*
X144780000Y-94917500D01*
X144780000Y-97155000D02*
X144780000Y-94917500D01*
X140970000Y-102620000D02*
X140970000Y-103425000D01*
X141270000Y-102320000D02*
X140970000Y-102620000D01*
X133350000Y-101600000D02*
X131445000Y-101600000D01*
X130810000Y-100965000D02*
X130810000Y-100076000D01*
X134300000Y-103425000D02*
X134300000Y-102550000D01*
X128270000Y-97536000D02*
X128270000Y-96922500D01*
X134300000Y-102550000D02*
X133350000Y-101600000D01*
X130810000Y-100076000D02*
X128270000Y-97536000D01*
X131445000Y-101600000D02*
X130810000Y-100965000D01*
X135589000Y-106125000D02*
X135890000Y-106426000D01*
X134300000Y-106125000D02*
X135589000Y-106125000D01*
D26*
X144780000Y-104520000D02*
X146050000Y-103250000D01*
X144780000Y-106680000D02*
X144780000Y-104520000D01*
G04 #@! TA.AperFunction,Conductor*
G36*
X137186076Y-86068618D02*
G01*
X137881809Y-86088659D01*
X137888608Y-86089040D01*
X138074665Y-86104500D01*
X138582216Y-86146674D01*
X138588991Y-86147422D01*
X139278466Y-86242482D01*
X139285191Y-86243595D01*
X139847127Y-86352314D01*
X139925761Y-86367528D01*
X139968521Y-86375801D01*
X139975173Y-86377275D01*
X140650379Y-86546250D01*
X140656916Y-86548075D01*
X141071760Y-86676094D01*
X141321993Y-86753315D01*
X141328450Y-86755501D01*
X141515211Y-86824400D01*
X141981440Y-86996401D01*
X141987729Y-86998916D01*
X142235297Y-87105792D01*
X142626763Y-87274790D01*
X142632945Y-87277660D01*
X143256082Y-87587665D01*
X143262101Y-87590865D01*
X143867575Y-87934124D01*
X143873412Y-87937645D01*
X144459450Y-88313153D01*
X144465087Y-88316985D01*
X145029916Y-88723604D01*
X145035339Y-88727734D01*
X145381716Y-89006725D01*
X145560817Y-89150983D01*
X145577396Y-89164337D01*
X145582580Y-89168749D01*
X146098866Y-89632801D01*
X146100226Y-89634023D01*
X146105166Y-89638711D01*
X146352046Y-89886022D01*
X146596884Y-90131288D01*
X146601568Y-90136241D01*
X146802928Y-90361054D01*
X147039656Y-90625355D01*
X147065932Y-90654692D01*
X147070340Y-90659891D01*
X147505982Y-91202690D01*
X147510092Y-91208104D01*
X147814148Y-91632021D01*
X147915767Y-91773700D01*
X147919588Y-91779345D01*
X148294048Y-92365999D01*
X148297559Y-92371841D01*
X148639761Y-92977915D01*
X148642950Y-92983939D01*
X148951879Y-93607637D01*
X148954736Y-93613818D01*
X149041657Y-93816132D01*
X149229484Y-94253312D01*
X149232004Y-94259646D01*
X149319686Y-94498601D01*
X149461371Y-94884729D01*
X149471759Y-94913040D01*
X149473931Y-94919493D01*
X149639761Y-95460211D01*
X149678004Y-95584909D01*
X149679823Y-95591467D01*
X149847620Y-96266975D01*
X149849075Y-96273592D01*
X149919931Y-96643279D01*
X149980096Y-96957186D01*
X149981197Y-96963913D01*
X149998475Y-97090866D01*
X150074971Y-97652945D01*
X150075053Y-97653550D01*
X150075787Y-97660309D01*
X150106155Y-98033671D01*
X150132212Y-98354030D01*
X150132581Y-98360837D01*
X150151448Y-99058087D01*
X150151493Y-99061935D01*
X150151190Y-99148767D01*
X150151118Y-99152597D01*
X150139914Y-99481685D01*
X150127384Y-99849702D01*
X150126968Y-99856506D01*
X150065701Y-100549820D01*
X150064917Y-100556591D01*
X150036348Y-100756081D01*
X149966393Y-101244563D01*
X149966252Y-101245546D01*
X149965106Y-101252252D01*
X149839467Y-101883882D01*
X149829319Y-101934900D01*
X149827813Y-101941531D01*
X149655305Y-102615847D01*
X149653437Y-102622402D01*
X149444728Y-103286363D01*
X149442509Y-103292808D01*
X149306646Y-103655226D01*
X149198776Y-103942974D01*
X149198198Y-103944515D01*
X149195637Y-103950822D01*
X148925244Y-104568261D01*
X148916422Y-104588405D01*
X148913524Y-104594561D01*
X148600262Y-105216062D01*
X148597034Y-105222059D01*
X148314098Y-105715095D01*
X148250597Y-105825749D01*
X148247049Y-105831561D01*
X147892217Y-106379000D01*
X147868491Y-106415604D01*
X147864635Y-106421215D01*
X147737769Y-106595510D01*
X147455040Y-106983940D01*
X147450881Y-106989340D01*
X147011457Y-107529088D01*
X147007012Y-107534256D01*
X146539040Y-108049453D01*
X146534323Y-108054373D01*
X146408400Y-108178767D01*
X146039163Y-108543520D01*
X146034207Y-108548158D01*
X145656612Y-108882813D01*
X145513327Y-109009804D01*
X145508106Y-109014185D01*
X144963032Y-109446980D01*
X144957581Y-109451073D01*
X144389890Y-109853766D01*
X144384230Y-109857555D01*
X143906693Y-110158858D01*
X143795601Y-110228952D01*
X143789742Y-110232431D01*
X143181872Y-110571462D01*
X143175873Y-110574598D01*
X142585414Y-110863223D01*
X142550552Y-110880264D01*
X142544356Y-110883088D01*
X141995582Y-111115464D01*
X141903431Y-111154485D01*
X141897087Y-111156971D01*
X141362732Y-111349877D01*
X141242438Y-111393304D01*
X141235967Y-111395444D01*
X140569492Y-111596030D01*
X140562914Y-111597817D01*
X140124486Y-111704289D01*
X139886566Y-111762068D01*
X139879921Y-111763493D01*
X139310364Y-111869568D01*
X139195663Y-111890930D01*
X139188930Y-111891996D01*
X138498816Y-111982239D01*
X138492036Y-111982940D01*
X137798032Y-112035731D01*
X137791224Y-112036064D01*
X137381749Y-112044999D01*
X137095371Y-112051248D01*
X137088573Y-112051212D01*
X136693605Y-112038455D01*
X136392933Y-112028743D01*
X136386129Y-112028339D01*
X136096256Y-112003234D01*
X135692700Y-111968282D01*
X135685950Y-111967512D01*
X135400338Y-111927118D01*
X134996814Y-111870047D01*
X134990093Y-111868911D01*
X134307203Y-111734314D01*
X134300554Y-111732815D01*
X133625976Y-111561494D01*
X133619417Y-111559638D01*
X133093865Y-111395444D01*
X132955068Y-111352081D01*
X132948645Y-111349881D01*
X132296500Y-111106703D01*
X132290180Y-111104150D01*
X132066144Y-111006504D01*
X131652129Y-110826055D01*
X131645960Y-110823165D01*
X131023893Y-110510978D01*
X131017906Y-110507767D01*
X130413634Y-110162398D01*
X130407811Y-110158858D01*
X129823093Y-109781310D01*
X129817469Y-109777459D01*
X129254033Y-109368849D01*
X129248625Y-109364699D01*
X128895828Y-109078500D01*
X128708093Y-108926203D01*
X128702950Y-108921794D01*
X128186931Y-108454718D01*
X128182004Y-108450010D01*
X127692012Y-107955723D01*
X127687345Y-107950754D01*
X127224784Y-107430673D01*
X127220394Y-107425459D01*
X127093870Y-107266681D01*
X128032000Y-107266681D01*
X128032077Y-107269733D01*
X128033233Y-107278945D01*
X128070162Y-107462091D01*
X128073752Y-107473833D01*
X128144978Y-107644943D01*
X128150778Y-107655759D01*
X128253885Y-107809779D01*
X128261678Y-107819266D01*
X128392734Y-107950322D01*
X128402221Y-107958115D01*
X128556241Y-108061222D01*
X128567057Y-108067022D01*
X128738167Y-108138248D01*
X128749909Y-108141838D01*
X128933055Y-108178767D01*
X128942267Y-108179923D01*
X128945319Y-108180000D01*
X129267885Y-108180000D01*
X129283124Y-108175525D01*
X129284329Y-108174135D01*
X129286000Y-108166452D01*
X129286000Y-108161885D01*
X129794000Y-108161885D01*
X129798475Y-108177124D01*
X129799865Y-108178329D01*
X129807548Y-108180000D01*
X130134681Y-108180000D01*
X130137733Y-108179923D01*
X130146945Y-108178767D01*
X130330091Y-108141838D01*
X130341833Y-108138248D01*
X130512943Y-108067022D01*
X130523759Y-108061222D01*
X130677779Y-107958115D01*
X130687266Y-107950322D01*
X130818322Y-107819266D01*
X130826115Y-107809779D01*
X130929222Y-107655759D01*
X130935022Y-107644943D01*
X131006248Y-107473833D01*
X131009838Y-107462091D01*
X131046767Y-107278945D01*
X131047923Y-107269733D01*
X131048000Y-107266681D01*
X131048000Y-106444115D01*
X131043525Y-106428876D01*
X131042135Y-106427671D01*
X131034452Y-106426000D01*
X129812115Y-106426000D01*
X129796876Y-106430475D01*
X129795671Y-106431865D01*
X129794000Y-106439548D01*
X129794000Y-108161885D01*
X129286000Y-108161885D01*
X129286000Y-106444115D01*
X129281525Y-106428876D01*
X129280135Y-106427671D01*
X129272452Y-106426000D01*
X128050115Y-106426000D01*
X128034876Y-106430475D01*
X128033671Y-106431865D01*
X128032000Y-106439548D01*
X128032000Y-107266681D01*
X127093870Y-107266681D01*
X126786649Y-106881142D01*
X126782547Y-106875698D01*
X126441805Y-106397115D01*
X126378869Y-106308719D01*
X126375070Y-106303065D01*
X126002653Y-105715095D01*
X125999162Y-105709240D01*
X125703904Y-105182018D01*
X125659069Y-105101959D01*
X125655903Y-105095928D01*
X125653537Y-105091109D01*
X125349159Y-104471168D01*
X125346326Y-104464980D01*
X125340678Y-104451705D01*
X125222934Y-104174989D01*
X125073814Y-103824535D01*
X125071316Y-103818193D01*
X124833837Y-103163949D01*
X124831686Y-103157481D01*
X124629942Y-102491375D01*
X124628143Y-102484800D01*
X124509145Y-101998495D01*
X124462713Y-101808744D01*
X124461273Y-101802087D01*
X124445962Y-101720663D01*
X124357881Y-101252265D01*
X124332644Y-101118060D01*
X124331566Y-101111329D01*
X124306921Y-100925385D01*
X128307000Y-100925385D01*
X128311475Y-100940624D01*
X128312865Y-100941829D01*
X128320548Y-100943500D01*
X129267885Y-100943500D01*
X129283124Y-100939025D01*
X129284329Y-100937635D01*
X129286000Y-100929952D01*
X129286000Y-100120116D01*
X129281525Y-100104877D01*
X129280135Y-100103672D01*
X129272452Y-100102001D01*
X129017905Y-100102001D01*
X129011386Y-100102338D01*
X128915794Y-100112257D01*
X128902400Y-100115149D01*
X128748216Y-100166588D01*
X128735038Y-100172761D01*
X128597193Y-100258063D01*
X128585792Y-100267099D01*
X128471261Y-100381829D01*
X128462249Y-100393240D01*
X128377184Y-100531243D01*
X128371037Y-100544424D01*
X128319862Y-100698710D01*
X128316995Y-100712086D01*
X128307328Y-100806438D01*
X128307000Y-100812855D01*
X128307000Y-100925385D01*
X124306921Y-100925385D01*
X124240116Y-100421353D01*
X124239404Y-100414574D01*
X124185402Y-99720680D01*
X124185057Y-99713873D01*
X124175144Y-99293240D01*
X124168659Y-99018047D01*
X124168683Y-99011240D01*
X124170454Y-98953296D01*
X124183609Y-98522704D01*
X124189938Y-98315572D01*
X124190330Y-98308767D01*
X124249176Y-97615245D01*
X124249936Y-97608471D01*
X124261820Y-97523371D01*
X124291562Y-97310400D01*
X127036500Y-97310400D01*
X127036837Y-97313646D01*
X127036837Y-97313650D01*
X127044817Y-97390554D01*
X127047474Y-97416166D01*
X127049655Y-97422702D01*
X127049655Y-97422704D01*
X127085559Y-97530321D01*
X127103450Y-97583946D01*
X127196522Y-97734348D01*
X127321697Y-97859305D01*
X127327927Y-97863145D01*
X127327928Y-97863146D01*
X127422925Y-97921703D01*
X127472262Y-97952115D01*
X127536329Y-97973365D01*
X127633611Y-98005632D01*
X127633613Y-98005632D01*
X127640139Y-98007797D01*
X127646975Y-98008497D01*
X127646978Y-98008498D01*
X127690031Y-98012909D01*
X127744600Y-98018500D01*
X127804406Y-98018500D01*
X127872527Y-98038502D01*
X127893501Y-98055405D01*
X129782491Y-99944395D01*
X129816517Y-100006707D01*
X129811452Y-100077522D01*
X129796958Y-100101950D01*
X129794000Y-100115548D01*
X129794000Y-101325500D01*
X129773998Y-101393621D01*
X129720342Y-101440114D01*
X129668000Y-101451500D01*
X128325116Y-101451500D01*
X128309877Y-101455975D01*
X128308672Y-101457365D01*
X128307001Y-101465048D01*
X128307001Y-101582095D01*
X128307338Y-101588614D01*
X128317257Y-101684206D01*
X128320149Y-101697600D01*
X128371588Y-101851784D01*
X128377761Y-101864962D01*
X128463063Y-102002807D01*
X128472099Y-102014208D01*
X128586828Y-102128738D01*
X128595762Y-102135794D01*
X128636823Y-102193712D01*
X128640053Y-102264635D01*
X128604426Y-102326046D01*
X128596593Y-102332846D01*
X128590652Y-102336522D01*
X128465695Y-102461697D01*
X128461855Y-102467927D01*
X128461854Y-102467928D01*
X128391448Y-102582148D01*
X128372885Y-102612262D01*
X128317203Y-102780139D01*
X128306500Y-102884600D01*
X128306500Y-103660400D01*
X128306837Y-103663646D01*
X128306837Y-103663650D01*
X128315956Y-103751531D01*
X128317474Y-103766166D01*
X128319655Y-103772702D01*
X128319655Y-103772704D01*
X128335902Y-103821401D01*
X128373450Y-103933946D01*
X128466522Y-104084348D01*
X128471704Y-104089521D01*
X128471708Y-104089526D01*
X128512863Y-104130610D01*
X128546942Y-104192892D01*
X128541939Y-104263712D01*
X128493938Y-104324486D01*
X128402221Y-104385885D01*
X128392734Y-104393678D01*
X128261678Y-104524734D01*
X128253885Y-104534221D01*
X128150778Y-104688241D01*
X128144978Y-104699057D01*
X128073752Y-104870167D01*
X128070162Y-104881909D01*
X128033233Y-105065055D01*
X128032077Y-105074267D01*
X128032000Y-105077319D01*
X128032000Y-105899885D01*
X128036475Y-105915124D01*
X128037865Y-105916329D01*
X128045548Y-105918000D01*
X131029885Y-105918000D01*
X131045124Y-105913525D01*
X131046329Y-105912135D01*
X131048000Y-105904452D01*
X131048000Y-105534500D01*
X131068002Y-105466379D01*
X131121658Y-105419886D01*
X131174000Y-105408500D01*
X131440500Y-105408500D01*
X131508621Y-105428502D01*
X131555114Y-105482158D01*
X131566500Y-105534500D01*
X131566500Y-106953134D01*
X131573255Y-107015316D01*
X131624385Y-107151705D01*
X131711739Y-107268261D01*
X131828295Y-107355615D01*
X131964684Y-107406745D01*
X132026866Y-107413500D01*
X132672307Y-107413500D01*
X132740428Y-107433502D01*
X132780974Y-107482807D01*
X132783713Y-107481301D01*
X132787527Y-107488240D01*
X132790448Y-107495617D01*
X132795110Y-107502033D01*
X132795110Y-107502034D01*
X132816436Y-107531387D01*
X132822952Y-107541307D01*
X132841350Y-107572415D01*
X132845458Y-107579362D01*
X132859779Y-107593683D01*
X132872619Y-107608716D01*
X132884528Y-107625107D01*
X132915674Y-107650873D01*
X132918605Y-107653298D01*
X132927384Y-107661288D01*
X134344595Y-109078500D01*
X134378621Y-109140812D01*
X134381500Y-109167595D01*
X134381500Y-110316328D01*
X134381808Y-110322408D01*
X134382733Y-110326995D01*
X134382733Y-110326996D01*
X134419182Y-110507762D01*
X134420900Y-110516284D01*
X134496905Y-110698873D01*
X134500332Y-110703992D01*
X134500334Y-110703996D01*
X134603496Y-110858099D01*
X134603500Y-110858104D01*
X134606927Y-110863223D01*
X134746777Y-111003073D01*
X134751896Y-111006500D01*
X134751901Y-111006504D01*
X134906004Y-111109666D01*
X134906008Y-111109668D01*
X134911127Y-111113095D01*
X135093716Y-111189100D01*
X135099752Y-111190317D01*
X135099755Y-111190318D01*
X135283004Y-111227267D01*
X135287592Y-111228192D01*
X135293672Y-111228500D01*
X136486328Y-111228500D01*
X136492408Y-111228192D01*
X136496996Y-111227267D01*
X136680245Y-111190318D01*
X136680248Y-111190317D01*
X136686284Y-111189100D01*
X136868873Y-111113095D01*
X136873992Y-111109668D01*
X136873996Y-111109666D01*
X137028099Y-111006504D01*
X137028104Y-111006500D01*
X137033223Y-111003073D01*
X137173073Y-110863223D01*
X137176500Y-110858104D01*
X137176504Y-110858099D01*
X137279666Y-110703996D01*
X137279668Y-110703992D01*
X137283095Y-110698873D01*
X137359100Y-110516284D01*
X137360819Y-110507762D01*
X137397267Y-110326996D01*
X137397267Y-110326995D01*
X137398192Y-110322408D01*
X137398500Y-110316328D01*
X137398500Y-108123672D01*
X137398192Y-108117592D01*
X137397267Y-108113004D01*
X137360318Y-107929755D01*
X137360317Y-107929752D01*
X137359100Y-107923716D01*
X137283095Y-107741127D01*
X137279666Y-107736004D01*
X137276755Y-107730576D01*
X137278879Y-107729437D01*
X137260794Y-107671863D01*
X137279515Y-107603379D01*
X137332289Y-107555888D01*
X137386772Y-107543500D01*
X138203228Y-107543500D01*
X138271349Y-107563502D01*
X138317842Y-107617158D01*
X138327946Y-107687432D01*
X138311708Y-107729752D01*
X138313245Y-107730576D01*
X138310334Y-107736004D01*
X138306905Y-107741127D01*
X138230900Y-107923716D01*
X138229683Y-107929752D01*
X138229682Y-107929755D01*
X138192733Y-108113004D01*
X138191808Y-108117592D01*
X138191500Y-108123672D01*
X138191500Y-110316328D01*
X138191808Y-110322408D01*
X138192733Y-110326995D01*
X138192733Y-110326996D01*
X138229182Y-110507762D01*
X138230900Y-110516284D01*
X138306905Y-110698873D01*
X138310332Y-110703992D01*
X138310334Y-110703996D01*
X138413496Y-110858099D01*
X138413500Y-110858104D01*
X138416927Y-110863223D01*
X138556777Y-111003073D01*
X138561896Y-111006500D01*
X138561901Y-111006504D01*
X138716004Y-111109666D01*
X138716008Y-111109668D01*
X138721127Y-111113095D01*
X138903716Y-111189100D01*
X138909752Y-111190317D01*
X138909755Y-111190318D01*
X139093004Y-111227267D01*
X139097592Y-111228192D01*
X139103672Y-111228500D01*
X140296328Y-111228500D01*
X140302408Y-111228192D01*
X140306996Y-111227267D01*
X140490245Y-111190318D01*
X140490248Y-111190317D01*
X140496284Y-111189100D01*
X140678873Y-111113095D01*
X140683992Y-111109668D01*
X140683996Y-111109666D01*
X140838099Y-111006504D01*
X140838104Y-111006500D01*
X140843223Y-111003073D01*
X140983073Y-110863223D01*
X140986500Y-110858104D01*
X140986504Y-110858099D01*
X141089666Y-110703996D01*
X141089668Y-110703992D01*
X141093095Y-110698873D01*
X141169100Y-110516284D01*
X141170819Y-110507762D01*
X141207267Y-110326996D01*
X141207267Y-110326995D01*
X141208192Y-110322408D01*
X141208500Y-110316328D01*
X141208500Y-108123672D01*
X141208192Y-108117592D01*
X141207267Y-108113004D01*
X141170318Y-107929755D01*
X141170317Y-107929752D01*
X141169100Y-107923716D01*
X141093095Y-107741127D01*
X141089668Y-107736008D01*
X141089666Y-107736004D01*
X140986504Y-107581901D01*
X140986500Y-107581896D01*
X140983073Y-107576777D01*
X140843223Y-107436927D01*
X140798138Y-107406745D01*
X140779607Y-107394340D01*
X140734127Y-107339824D01*
X140725340Y-107269373D01*
X140748874Y-107214071D01*
X140790229Y-107158891D01*
X140795615Y-107151705D01*
X140846745Y-107015316D01*
X140847539Y-107008010D01*
X140882635Y-106946576D01*
X140945590Y-106913756D01*
X141016295Y-106920182D01*
X141072302Y-106963814D01*
X141092454Y-107007940D01*
X141093255Y-107015316D01*
X141144385Y-107151705D01*
X141231739Y-107268261D01*
X141348295Y-107355615D01*
X141484684Y-107406745D01*
X141546866Y-107413500D01*
X142293134Y-107413500D01*
X142355316Y-107406745D01*
X142491705Y-107355615D01*
X142608261Y-107268261D01*
X142695615Y-107151705D01*
X142746745Y-107015316D01*
X142753500Y-106953134D01*
X142753500Y-105296866D01*
X142746745Y-105234684D01*
X142695615Y-105098295D01*
X142608261Y-104981739D01*
X142491705Y-104894385D01*
X142483297Y-104891233D01*
X142475425Y-104886923D01*
X142476728Y-104884543D01*
X142431196Y-104850336D01*
X142406499Y-104783773D01*
X142421709Y-104714425D01*
X142471997Y-104664309D01*
X142479097Y-104661067D01*
X142483299Y-104658766D01*
X142491705Y-104655615D01*
X142608261Y-104568261D01*
X142695615Y-104451705D01*
X142746745Y-104315316D01*
X142753500Y-104253134D01*
X142753500Y-103661000D01*
X142773502Y-103592879D01*
X142827158Y-103546386D01*
X142897432Y-103536282D01*
X142962012Y-103565776D01*
X142988619Y-103598000D01*
X143021658Y-103655226D01*
X143021661Y-103655231D01*
X143024960Y-103660944D01*
X143029378Y-103665851D01*
X143029379Y-103665852D01*
X143091012Y-103734302D01*
X143152747Y-103802866D01*
X143307248Y-103915118D01*
X143313276Y-103917802D01*
X143313278Y-103917803D01*
X143380469Y-103947718D01*
X143481712Y-103992794D01*
X143542256Y-104005663D01*
X143662056Y-104031128D01*
X143662061Y-104031128D01*
X143668513Y-104032500D01*
X143762509Y-104032500D01*
X143830630Y-104052502D01*
X143877123Y-104106158D01*
X143887227Y-104176432D01*
X143857733Y-104241012D01*
X143810932Y-104274824D01*
X143801127Y-104278905D01*
X143796008Y-104282332D01*
X143796004Y-104282334D01*
X143641901Y-104385496D01*
X143641896Y-104385500D01*
X143636777Y-104388927D01*
X143496927Y-104528777D01*
X143493500Y-104533896D01*
X143493496Y-104533901D01*
X143390334Y-104688004D01*
X143390332Y-104688008D01*
X143386905Y-104693127D01*
X143310900Y-104875716D01*
X143309683Y-104881752D01*
X143309682Y-104881755D01*
X143290607Y-104976358D01*
X143271808Y-105069592D01*
X143271500Y-105075672D01*
X143271500Y-107268328D01*
X143271808Y-107274408D01*
X143272733Y-107278995D01*
X143272733Y-107278996D01*
X143303887Y-107433502D01*
X143310900Y-107468284D01*
X143386905Y-107650873D01*
X143390332Y-107655992D01*
X143390334Y-107655996D01*
X143493496Y-107810099D01*
X143493500Y-107810104D01*
X143496927Y-107815223D01*
X143636777Y-107955073D01*
X143641896Y-107958500D01*
X143641901Y-107958504D01*
X143796004Y-108061666D01*
X143796008Y-108061668D01*
X143801127Y-108065095D01*
X143983716Y-108141100D01*
X143989752Y-108142317D01*
X143989755Y-108142318D01*
X144173004Y-108179267D01*
X144177592Y-108180192D01*
X144183672Y-108180500D01*
X145376328Y-108180500D01*
X145382408Y-108180192D01*
X145386996Y-108179267D01*
X145570245Y-108142318D01*
X145570248Y-108142317D01*
X145576284Y-108141100D01*
X145758873Y-108065095D01*
X145763992Y-108061668D01*
X145763996Y-108061666D01*
X145918099Y-107958504D01*
X145918104Y-107958500D01*
X145923223Y-107955073D01*
X146063073Y-107815223D01*
X146066500Y-107810104D01*
X146066504Y-107810099D01*
X146169666Y-107655996D01*
X146169668Y-107655992D01*
X146173095Y-107650873D01*
X146249100Y-107468284D01*
X146256114Y-107433502D01*
X146287267Y-107278996D01*
X146287267Y-107278995D01*
X146288192Y-107274408D01*
X146288500Y-107268328D01*
X146288500Y-105075672D01*
X146288192Y-105069592D01*
X146269393Y-104976358D01*
X146250318Y-104881755D01*
X146250317Y-104881752D01*
X146249100Y-104875716D01*
X146173095Y-104693127D01*
X146169668Y-104688008D01*
X146169666Y-104688004D01*
X146066504Y-104533901D01*
X146066500Y-104533896D01*
X146063073Y-104528777D01*
X146042584Y-104508288D01*
X146008558Y-104445976D01*
X146013623Y-104375161D01*
X146042584Y-104330098D01*
X146127277Y-104245405D01*
X146189589Y-104211379D01*
X146216372Y-104208500D01*
X146444134Y-104208500D01*
X146506316Y-104201745D01*
X146642705Y-104150615D01*
X146759261Y-104063261D01*
X146846615Y-103946705D01*
X146897745Y-103810316D01*
X146904500Y-103748134D01*
X146904500Y-102751866D01*
X146897745Y-102689684D01*
X146846615Y-102553295D01*
X146759261Y-102436739D01*
X146642705Y-102349385D01*
X146506316Y-102298255D01*
X146444134Y-102291500D01*
X145147866Y-102291500D01*
X145085684Y-102298255D01*
X144949295Y-102349385D01*
X144832739Y-102436739D01*
X144745385Y-102553295D01*
X144742233Y-102561703D01*
X144735976Y-102578393D01*
X144693334Y-102635158D01*
X144626772Y-102659857D01*
X144557423Y-102644649D01*
X144508876Y-102597164D01*
X144503040Y-102587056D01*
X144472642Y-102553295D01*
X144379675Y-102450045D01*
X144379674Y-102450044D01*
X144375253Y-102445134D01*
X144250880Y-102354771D01*
X144226094Y-102336763D01*
X144226093Y-102336762D01*
X144220752Y-102332882D01*
X144214724Y-102330198D01*
X144214722Y-102330197D01*
X144132000Y-102293367D01*
X144077904Y-102247387D01*
X144057255Y-102179459D01*
X144076607Y-102111151D01*
X144094694Y-102088627D01*
X144102014Y-102081395D01*
X144106005Y-102077452D01*
X144112438Y-102068315D01*
X144112462Y-102068332D01*
X144115063Y-102064629D01*
X144116455Y-102062768D01*
X144121490Y-102057453D01*
X144153839Y-102001760D01*
X144160820Y-101989741D01*
X144162454Y-101987008D01*
X144522256Y-101402107D01*
X144823584Y-100912264D01*
X144876312Y-100864723D01*
X144946373Y-100853236D01*
X144975131Y-100860301D01*
X145085684Y-100901745D01*
X145147866Y-100908500D01*
X146444134Y-100908500D01*
X146506316Y-100901745D01*
X146642705Y-100850615D01*
X146759261Y-100763261D01*
X146846615Y-100646705D01*
X146866389Y-100593958D01*
X146873774Y-100574259D01*
X146916416Y-100517495D01*
X146982977Y-100492795D01*
X147052326Y-100508003D01*
X147102444Y-100558289D01*
X147114918Y-100591898D01*
X147116149Y-100597602D01*
X147167588Y-100751784D01*
X147173761Y-100764962D01*
X147259063Y-100902807D01*
X147268099Y-100914208D01*
X147382829Y-101028739D01*
X147394240Y-101037751D01*
X147532243Y-101122816D01*
X147545424Y-101128963D01*
X147699710Y-101180138D01*
X147713086Y-101183005D01*
X147807438Y-101192672D01*
X147813854Y-101193000D01*
X148063885Y-101193000D01*
X148079124Y-101188525D01*
X148080329Y-101187135D01*
X148082000Y-101179452D01*
X148082000Y-101174884D01*
X148590000Y-101174884D01*
X148594475Y-101190123D01*
X148595865Y-101191328D01*
X148603548Y-101192999D01*
X148858095Y-101192999D01*
X148864614Y-101192662D01*
X148960206Y-101182743D01*
X148973600Y-101179851D01*
X149127784Y-101128412D01*
X149140962Y-101122239D01*
X149278807Y-101036937D01*
X149290208Y-101027901D01*
X149404739Y-100913171D01*
X149413751Y-100901760D01*
X149498816Y-100763757D01*
X149504963Y-100750576D01*
X149556138Y-100596290D01*
X149559005Y-100582914D01*
X149568672Y-100488562D01*
X149569000Y-100482146D01*
X149569000Y-100369615D01*
X149564525Y-100354376D01*
X149563135Y-100353171D01*
X149555452Y-100351500D01*
X148608115Y-100351500D01*
X148592876Y-100355975D01*
X148591671Y-100357365D01*
X148590000Y-100365048D01*
X148590000Y-101174884D01*
X148082000Y-101174884D01*
X148082000Y-99969500D01*
X148102002Y-99901379D01*
X148155658Y-99854886D01*
X148208000Y-99843500D01*
X149550884Y-99843500D01*
X149566123Y-99839025D01*
X149567328Y-99837635D01*
X149568999Y-99829952D01*
X149568999Y-99712905D01*
X149568662Y-99706386D01*
X149558743Y-99610794D01*
X149555851Y-99597400D01*
X149504412Y-99443216D01*
X149498239Y-99430038D01*
X149412937Y-99292193D01*
X149403901Y-99280792D01*
X149289172Y-99166262D01*
X149280238Y-99159206D01*
X149239177Y-99101288D01*
X149235947Y-99030365D01*
X149271574Y-98968954D01*
X149279407Y-98962154D01*
X149285348Y-98958478D01*
X149410305Y-98833303D01*
X149433811Y-98795169D01*
X149499275Y-98688968D01*
X149499276Y-98688966D01*
X149503115Y-98682738D01*
X149558797Y-98514861D01*
X149569500Y-98410400D01*
X149569500Y-97634600D01*
X149566789Y-97608471D01*
X149559238Y-97535692D01*
X149559237Y-97535688D01*
X149558526Y-97528834D01*
X149550201Y-97503879D01*
X149504868Y-97368002D01*
X149502550Y-97361054D01*
X149409478Y-97210652D01*
X149284303Y-97085695D01*
X149143467Y-96998882D01*
X149139968Y-96996725D01*
X149139966Y-96996724D01*
X149133738Y-96992885D01*
X149076051Y-96973751D01*
X149055833Y-96967045D01*
X148997473Y-96926614D01*
X148970236Y-96861050D01*
X148969500Y-96847452D01*
X148969500Y-95582768D01*
X148970027Y-95571585D01*
X148971702Y-95564092D01*
X148969562Y-95496001D01*
X148969500Y-95492044D01*
X148969500Y-95464144D01*
X148968996Y-95460153D01*
X148968063Y-95448311D01*
X148967927Y-95443966D01*
X148966674Y-95404111D01*
X148961021Y-95384652D01*
X148957012Y-95365293D01*
X148956846Y-95363983D01*
X148954474Y-95345203D01*
X148951558Y-95337837D01*
X148951556Y-95337831D01*
X148938200Y-95304098D01*
X148934355Y-95292868D01*
X148924230Y-95258017D01*
X148924230Y-95258016D01*
X148922019Y-95250407D01*
X148915066Y-95238650D01*
X148911705Y-95232966D01*
X148903008Y-95215213D01*
X148898472Y-95203758D01*
X148895552Y-95196383D01*
X148869563Y-95160612D01*
X148863047Y-95150692D01*
X148840542Y-95112638D01*
X148826221Y-95098317D01*
X148813380Y-95083283D01*
X148806131Y-95073306D01*
X148801472Y-95066893D01*
X148767395Y-95038702D01*
X148758616Y-95030712D01*
X146575405Y-92847500D01*
X146541379Y-92785188D01*
X146538500Y-92758405D01*
X146538500Y-92388498D01*
X146537189Y-92371841D01*
X146536067Y-92357579D01*
X146536066Y-92357574D01*
X146535562Y-92351169D01*
X146493823Y-92207500D01*
X146491357Y-92199012D01*
X146491356Y-92199010D01*
X146489145Y-92191399D01*
X146467613Y-92154991D01*
X146408491Y-92055020D01*
X146408489Y-92055017D01*
X146404453Y-92048193D01*
X146286807Y-91930547D01*
X146279983Y-91926511D01*
X146279980Y-91926509D01*
X146172411Y-91862893D01*
X146143601Y-91845855D01*
X146135990Y-91843644D01*
X146135988Y-91843643D01*
X146083769Y-91828472D01*
X145983831Y-91799438D01*
X145977426Y-91798934D01*
X145977421Y-91798933D01*
X145948958Y-91796693D01*
X145948950Y-91796693D01*
X145946502Y-91796500D01*
X145539500Y-91796500D01*
X145471379Y-91776498D01*
X145424886Y-91722842D01*
X145413500Y-91670500D01*
X145413500Y-91518767D01*
X145414027Y-91507584D01*
X145415702Y-91500091D01*
X145413562Y-91432014D01*
X145413500Y-91428055D01*
X145413500Y-91400144D01*
X145412995Y-91396144D01*
X145412062Y-91384301D01*
X145410922Y-91348029D01*
X145410673Y-91340110D01*
X145405022Y-91320658D01*
X145401014Y-91301306D01*
X145399467Y-91289063D01*
X145398474Y-91281203D01*
X145395556Y-91273832D01*
X145382200Y-91240097D01*
X145378355Y-91228870D01*
X145372326Y-91208119D01*
X145366018Y-91186407D01*
X145361984Y-91179585D01*
X145361981Y-91179579D01*
X145355706Y-91168968D01*
X145347010Y-91151218D01*
X145342472Y-91139756D01*
X145342469Y-91139751D01*
X145339552Y-91132383D01*
X145324795Y-91112072D01*
X145313573Y-91096625D01*
X145307057Y-91086707D01*
X145288575Y-91055457D01*
X145284542Y-91048637D01*
X145270218Y-91034313D01*
X145257376Y-91019278D01*
X145245472Y-91002893D01*
X145211406Y-90974711D01*
X145202627Y-90966722D01*
X144013652Y-89777747D01*
X144006112Y-89769461D01*
X144002000Y-89762982D01*
X143952348Y-89716356D01*
X143949507Y-89713602D01*
X143929770Y-89693865D01*
X143926573Y-89691385D01*
X143917551Y-89683680D01*
X143885321Y-89653414D01*
X143878375Y-89649595D01*
X143878372Y-89649593D01*
X143867566Y-89643652D01*
X143851047Y-89632801D01*
X143850583Y-89632441D01*
X143835041Y-89620386D01*
X143827772Y-89617241D01*
X143827768Y-89617238D01*
X143794463Y-89602826D01*
X143783813Y-89597609D01*
X143745060Y-89576305D01*
X143725437Y-89571267D01*
X143706734Y-89564863D01*
X143695420Y-89559967D01*
X143695419Y-89559967D01*
X143688145Y-89556819D01*
X143680322Y-89555580D01*
X143680312Y-89555577D01*
X143644476Y-89549901D01*
X143632856Y-89547495D01*
X143597711Y-89538472D01*
X143597710Y-89538472D01*
X143590030Y-89536500D01*
X143569776Y-89536500D01*
X143550065Y-89534949D01*
X143541618Y-89533611D01*
X143530057Y-89531780D01*
X143522165Y-89532526D01*
X143486039Y-89535941D01*
X143474181Y-89536500D01*
X143182538Y-89536500D01*
X143114417Y-89516498D01*
X143067924Y-89462842D01*
X143063014Y-89450376D01*
X143038868Y-89378002D01*
X143036550Y-89371054D01*
X142943478Y-89220652D01*
X142818303Y-89095695D01*
X142781187Y-89072816D01*
X142673968Y-89006725D01*
X142673966Y-89006724D01*
X142667738Y-89002885D01*
X142507254Y-88949655D01*
X142506389Y-88949368D01*
X142506387Y-88949368D01*
X142499861Y-88947203D01*
X142493025Y-88946503D01*
X142493022Y-88946502D01*
X142449969Y-88942091D01*
X142395400Y-88936500D01*
X141619600Y-88936500D01*
X141616354Y-88936837D01*
X141616350Y-88936837D01*
X141520692Y-88946762D01*
X141520688Y-88946763D01*
X141513834Y-88947474D01*
X141507298Y-88949655D01*
X141507296Y-88949655D01*
X141395549Y-88986937D01*
X141346054Y-89003450D01*
X141195652Y-89096522D01*
X141070695Y-89221697D01*
X141068094Y-89225916D01*
X141010970Y-89266417D01*
X140940047Y-89269649D01*
X140878635Y-89234024D01*
X140872078Y-89226470D01*
X140868478Y-89220652D01*
X140743303Y-89095695D01*
X140706187Y-89072816D01*
X140598968Y-89006725D01*
X140598966Y-89006724D01*
X140592738Y-89002885D01*
X140432254Y-88949655D01*
X140431389Y-88949368D01*
X140431387Y-88949368D01*
X140424861Y-88947203D01*
X140418025Y-88946503D01*
X140418022Y-88946502D01*
X140374969Y-88942091D01*
X140320400Y-88936500D01*
X139544600Y-88936500D01*
X139541354Y-88936837D01*
X139541350Y-88936837D01*
X139445692Y-88946762D01*
X139445688Y-88946763D01*
X139438834Y-88947474D01*
X139432298Y-88949655D01*
X139432296Y-88949655D01*
X139320549Y-88986937D01*
X139271054Y-89003450D01*
X139120652Y-89096522D01*
X138995695Y-89221697D01*
X138902885Y-89372262D01*
X138900581Y-89379209D01*
X138849976Y-89531780D01*
X138847203Y-89540139D01*
X138836500Y-89644600D01*
X138836500Y-90695400D01*
X138836837Y-90698646D01*
X138836837Y-90698650D01*
X138845799Y-90785020D01*
X138847474Y-90801166D01*
X138903450Y-90968946D01*
X138996522Y-91119348D01*
X139121697Y-91244305D01*
X139127927Y-91248145D01*
X139127928Y-91248146D01*
X139224699Y-91307797D01*
X139272193Y-91360570D01*
X139283616Y-91430641D01*
X139255341Y-91495765D01*
X139250437Y-91501305D01*
X139246360Y-91505647D01*
X139243601Y-91508494D01*
X139223865Y-91528230D01*
X139221385Y-91531427D01*
X139213682Y-91540447D01*
X139183414Y-91572679D01*
X139179595Y-91579625D01*
X139179593Y-91579628D01*
X139173652Y-91590434D01*
X139162801Y-91606953D01*
X139150386Y-91622959D01*
X139147241Y-91630228D01*
X139147238Y-91630232D01*
X139132826Y-91663537D01*
X139127609Y-91674187D01*
X139106305Y-91712940D01*
X139104334Y-91720615D01*
X139104334Y-91720616D01*
X139101267Y-91732562D01*
X139094863Y-91751266D01*
X139086819Y-91769855D01*
X139085580Y-91777678D01*
X139085577Y-91777688D01*
X139079901Y-91813524D01*
X139077495Y-91825144D01*
X139072178Y-91845855D01*
X139066500Y-91867970D01*
X139066500Y-91888224D01*
X139064949Y-91907934D01*
X139061780Y-91927943D01*
X139062526Y-91935835D01*
X139065941Y-91971961D01*
X139066500Y-91983819D01*
X139066500Y-93648905D01*
X139046498Y-93717026D01*
X138992842Y-93763519D01*
X138922568Y-93773623D01*
X138857988Y-93744129D01*
X138851405Y-93738000D01*
X138368652Y-93255247D01*
X138361112Y-93246961D01*
X138357000Y-93240482D01*
X138307348Y-93193856D01*
X138304507Y-93191102D01*
X138284770Y-93171365D01*
X138281573Y-93168885D01*
X138272551Y-93161180D01*
X138259116Y-93148564D01*
X138240321Y-93130914D01*
X138233375Y-93127095D01*
X138233372Y-93127093D01*
X138222566Y-93121152D01*
X138206047Y-93110301D01*
X138205583Y-93109941D01*
X138190041Y-93097886D01*
X138182772Y-93094741D01*
X138182768Y-93094738D01*
X138149463Y-93080326D01*
X138138813Y-93075109D01*
X138100060Y-93053805D01*
X138080437Y-93048767D01*
X138061734Y-93042363D01*
X138050420Y-93037467D01*
X138050419Y-93037467D01*
X138043145Y-93034319D01*
X138035322Y-93033080D01*
X138035312Y-93033077D01*
X137999476Y-93027401D01*
X137987856Y-93024995D01*
X137952711Y-93015972D01*
X137952710Y-93015972D01*
X137945030Y-93014000D01*
X137924776Y-93014000D01*
X137905065Y-93012449D01*
X137892886Y-93010520D01*
X137885057Y-93009280D01*
X137855786Y-93012047D01*
X137841039Y-93013441D01*
X137829181Y-93014000D01*
X136911490Y-93014000D01*
X136843369Y-92993998D01*
X136796876Y-92940342D01*
X136786180Y-92874830D01*
X136802814Y-92716565D01*
X136803504Y-92710000D01*
X136785758Y-92541156D01*
X136784232Y-92526635D01*
X136784232Y-92526633D01*
X136783542Y-92520072D01*
X136738516Y-92381498D01*
X136726891Y-92345719D01*
X136724863Y-92274752D01*
X136761526Y-92213954D01*
X136806847Y-92187260D01*
X136831993Y-92178871D01*
X136832003Y-92178867D01*
X136838946Y-92176550D01*
X136989348Y-92083478D01*
X137114305Y-91958303D01*
X137133019Y-91927943D01*
X137203275Y-91813968D01*
X137203276Y-91813966D01*
X137207115Y-91807738D01*
X137247618Y-91685625D01*
X137260632Y-91646389D01*
X137260632Y-91646387D01*
X137262797Y-91639861D01*
X137263601Y-91632021D01*
X137269680Y-91572679D01*
X137273500Y-91535400D01*
X137273500Y-90634600D01*
X137267405Y-90575855D01*
X137263238Y-90535692D01*
X137263237Y-90535688D01*
X137262526Y-90528834D01*
X137206550Y-90361054D01*
X137113478Y-90210652D01*
X136988303Y-90085695D01*
X136982072Y-90081854D01*
X136843968Y-89996725D01*
X136843966Y-89996724D01*
X136837738Y-89992885D01*
X136677254Y-89939655D01*
X136676389Y-89939368D01*
X136676387Y-89939368D01*
X136669861Y-89937203D01*
X136663025Y-89936503D01*
X136663022Y-89936502D01*
X136619969Y-89932091D01*
X136565400Y-89926500D01*
X135214600Y-89926500D01*
X135211354Y-89926837D01*
X135211350Y-89926837D01*
X135115692Y-89936762D01*
X135115688Y-89936763D01*
X135108834Y-89937474D01*
X135102298Y-89939655D01*
X135102296Y-89939655D01*
X134970194Y-89983728D01*
X134941054Y-89993450D01*
X134790652Y-90086522D01*
X134665695Y-90211697D01*
X134661855Y-90217927D01*
X134661854Y-90217928D01*
X134647608Y-90241040D01*
X134572885Y-90362262D01*
X134517203Y-90530139D01*
X134506500Y-90634600D01*
X134506500Y-91535400D01*
X134506837Y-91538646D01*
X134506837Y-91538650D01*
X134516340Y-91630232D01*
X134517474Y-91641166D01*
X134519655Y-91647702D01*
X134519655Y-91647704D01*
X134532307Y-91685625D01*
X134573450Y-91808946D01*
X134666522Y-91959348D01*
X134791697Y-92084305D01*
X134797927Y-92088145D01*
X134797928Y-92088146D01*
X134935090Y-92172694D01*
X134942262Y-92177115D01*
X134949210Y-92179419D01*
X134949213Y-92179421D01*
X134972915Y-92187283D01*
X135031274Y-92227714D01*
X135058510Y-92293279D01*
X135053079Y-92345811D01*
X135041484Y-92381498D01*
X134996458Y-92520072D01*
X134995768Y-92526633D01*
X134995768Y-92526635D01*
X134994242Y-92541156D01*
X134976496Y-92710000D01*
X134977186Y-92716565D01*
X134993820Y-92874830D01*
X134981048Y-92944668D01*
X134932546Y-92996515D01*
X134868510Y-93014000D01*
X133946967Y-93014000D01*
X133878846Y-92993998D01*
X133832353Y-92940342D01*
X133825970Y-92923152D01*
X133791358Y-92804014D01*
X133791356Y-92804009D01*
X133789145Y-92796399D01*
X133730964Y-92698020D01*
X133708491Y-92660020D01*
X133708489Y-92660017D01*
X133704453Y-92653193D01*
X133586807Y-92535547D01*
X133579983Y-92531511D01*
X133579980Y-92531509D01*
X133450427Y-92454892D01*
X133450428Y-92454892D01*
X133443601Y-92450855D01*
X133435990Y-92448644D01*
X133435988Y-92448643D01*
X133383769Y-92433472D01*
X133283831Y-92404438D01*
X133277426Y-92403934D01*
X133277421Y-92403933D01*
X133248958Y-92401693D01*
X133248950Y-92401693D01*
X133246502Y-92401500D01*
X133014500Y-92401500D01*
X132946379Y-92381498D01*
X132899886Y-92327842D01*
X132888500Y-92275500D01*
X132888500Y-91118498D01*
X132888197Y-91114646D01*
X132886067Y-91087579D01*
X132886066Y-91087574D01*
X132885562Y-91081169D01*
X132850589Y-90960790D01*
X132841357Y-90929012D01*
X132841356Y-90929010D01*
X132839145Y-90921399D01*
X132769420Y-90803500D01*
X132758491Y-90785020D01*
X132758489Y-90785017D01*
X132754453Y-90778193D01*
X132636807Y-90660547D01*
X132629983Y-90656511D01*
X132629980Y-90656509D01*
X132500427Y-90579892D01*
X132500428Y-90579892D01*
X132493601Y-90575855D01*
X132485990Y-90573644D01*
X132485988Y-90573643D01*
X132433769Y-90558472D01*
X132333831Y-90529438D01*
X132327426Y-90528934D01*
X132327421Y-90528933D01*
X132298958Y-90526693D01*
X132298950Y-90526693D01*
X132296502Y-90526500D01*
X131863498Y-90526500D01*
X131861050Y-90526693D01*
X131861042Y-90526693D01*
X131832579Y-90528933D01*
X131832574Y-90528934D01*
X131826169Y-90529438D01*
X131726231Y-90558472D01*
X131674012Y-90573643D01*
X131674010Y-90573644D01*
X131666399Y-90575855D01*
X131659572Y-90579892D01*
X131659573Y-90579892D01*
X131530020Y-90656509D01*
X131530017Y-90656511D01*
X131523193Y-90660547D01*
X131405547Y-90778193D01*
X131401511Y-90785017D01*
X131401509Y-90785020D01*
X131390580Y-90803500D01*
X131320855Y-90921399D01*
X131318644Y-90929010D01*
X131318643Y-90929012D01*
X131309411Y-90960790D01*
X131274438Y-91081169D01*
X131273934Y-91087574D01*
X131273933Y-91087579D01*
X131271803Y-91114646D01*
X131271500Y-91118498D01*
X131271500Y-92275500D01*
X131251498Y-92343621D01*
X131197842Y-92390114D01*
X131145500Y-92401500D01*
X130913498Y-92401500D01*
X130911050Y-92401693D01*
X130911042Y-92401693D01*
X130882579Y-92403933D01*
X130882574Y-92403934D01*
X130876169Y-92404438D01*
X130776231Y-92433472D01*
X130724012Y-92448643D01*
X130724010Y-92448644D01*
X130716399Y-92450855D01*
X130709572Y-92454892D01*
X130709573Y-92454892D01*
X130580020Y-92531509D01*
X130580017Y-92531511D01*
X130573193Y-92535547D01*
X130455547Y-92653193D01*
X130451511Y-92660017D01*
X130451509Y-92660020D01*
X130429036Y-92698020D01*
X130370855Y-92796399D01*
X130368644Y-92804009D01*
X130368642Y-92804014D01*
X130334030Y-92923152D01*
X130295817Y-92982988D01*
X130231321Y-93012666D01*
X130213033Y-93014000D01*
X129548767Y-93014000D01*
X129537584Y-93013473D01*
X129530091Y-93011798D01*
X129522165Y-93012047D01*
X129522164Y-93012047D01*
X129462014Y-93013938D01*
X129458055Y-93014000D01*
X129430144Y-93014000D01*
X129426210Y-93014497D01*
X129426209Y-93014497D01*
X129426144Y-93014505D01*
X129414307Y-93015438D01*
X129382490Y-93016438D01*
X129378029Y-93016578D01*
X129370110Y-93016827D01*
X129352454Y-93021956D01*
X129350658Y-93022478D01*
X129331306Y-93026486D01*
X129324235Y-93027380D01*
X129311203Y-93029026D01*
X129303834Y-93031943D01*
X129303832Y-93031944D01*
X129270097Y-93045300D01*
X129258869Y-93049145D01*
X129216407Y-93061482D01*
X129209585Y-93065516D01*
X129209579Y-93065519D01*
X129198968Y-93071794D01*
X129181218Y-93080490D01*
X129169756Y-93085028D01*
X129169751Y-93085031D01*
X129162383Y-93087948D01*
X129144970Y-93100599D01*
X129126625Y-93113927D01*
X129116707Y-93120443D01*
X129105463Y-93127093D01*
X129078637Y-93142958D01*
X129064313Y-93157282D01*
X129049281Y-93170121D01*
X129032893Y-93182028D01*
X129004712Y-93216093D01*
X128996722Y-93224873D01*
X128507000Y-93714595D01*
X128444688Y-93748621D01*
X128417905Y-93751500D01*
X127744600Y-93751500D01*
X127741354Y-93751837D01*
X127741350Y-93751837D01*
X127645692Y-93761762D01*
X127645688Y-93761763D01*
X127638834Y-93762474D01*
X127632298Y-93764655D01*
X127632296Y-93764655D01*
X127605416Y-93773623D01*
X127471054Y-93818450D01*
X127320652Y-93911522D01*
X127195695Y-94036697D01*
X127191855Y-94042927D01*
X127191854Y-94042928D01*
X127108261Y-94178541D01*
X127102885Y-94187262D01*
X127047203Y-94355139D01*
X127036500Y-94459600D01*
X127036500Y-95235400D01*
X127036837Y-95238646D01*
X127036837Y-95238650D01*
X127046036Y-95327305D01*
X127047474Y-95341166D01*
X127049655Y-95347702D01*
X127049655Y-95347704D01*
X127083912Y-95450383D01*
X127103450Y-95508946D01*
X127196522Y-95659348D01*
X127321697Y-95784305D01*
X127325916Y-95786906D01*
X127366417Y-95844030D01*
X127369649Y-95914953D01*
X127334024Y-95976365D01*
X127326470Y-95982922D01*
X127320652Y-95986522D01*
X127195695Y-96111697D01*
X127191855Y-96117927D01*
X127191854Y-96117928D01*
X127150529Y-96184970D01*
X127102885Y-96262262D01*
X127084153Y-96318739D01*
X127050759Y-96419419D01*
X127047203Y-96430139D01*
X127046503Y-96436975D01*
X127046502Y-96436978D01*
X127043054Y-96470632D01*
X127036500Y-96534600D01*
X127036500Y-97310400D01*
X124291562Y-97310400D01*
X124346201Y-96919147D01*
X124347324Y-96912438D01*
X124357360Y-96861050D01*
X124480724Y-96229336D01*
X124482211Y-96222684D01*
X124519651Y-96074177D01*
X124652359Y-95547791D01*
X124654199Y-95541246D01*
X124860597Y-94876538D01*
X124862793Y-94870085D01*
X124944868Y-94648801D01*
X125104837Y-94217506D01*
X125107374Y-94211195D01*
X125109874Y-94205433D01*
X125384343Y-93572688D01*
X125387223Y-93566511D01*
X125698328Y-92943894D01*
X125701539Y-92937881D01*
X125873692Y-92635451D01*
X126045854Y-92333006D01*
X126049367Y-92327203D01*
X126425898Y-91741821D01*
X126429739Y-91736190D01*
X126837373Y-91172030D01*
X126841514Y-91166615D01*
X127279037Y-90625355D01*
X127283463Y-90620172D01*
X127749642Y-90103335D01*
X127754343Y-90098399D01*
X128247774Y-89607545D01*
X128252735Y-89602870D01*
X128771986Y-89139420D01*
X128777192Y-89135020D01*
X129320760Y-88700318D01*
X129326197Y-88696206D01*
X129686734Y-88438562D01*
X129695784Y-88432095D01*
X134507001Y-88432095D01*
X134507338Y-88438614D01*
X134517257Y-88534206D01*
X134520149Y-88547600D01*
X134571588Y-88701784D01*
X134577761Y-88714962D01*
X134663063Y-88852807D01*
X134672099Y-88864208D01*
X134786829Y-88978739D01*
X134798240Y-88987751D01*
X134936243Y-89072816D01*
X134949424Y-89078963D01*
X135103710Y-89130138D01*
X135117086Y-89133005D01*
X135211438Y-89142672D01*
X135217854Y-89143000D01*
X135617885Y-89143000D01*
X135633124Y-89138525D01*
X135634329Y-89137135D01*
X135636000Y-89129452D01*
X135636000Y-89124884D01*
X136144000Y-89124884D01*
X136148475Y-89140123D01*
X136149865Y-89141328D01*
X136157548Y-89142999D01*
X136562095Y-89142999D01*
X136568614Y-89142662D01*
X136664206Y-89132743D01*
X136677600Y-89129851D01*
X136831784Y-89078412D01*
X136844962Y-89072239D01*
X136982807Y-88986937D01*
X136994208Y-88977901D01*
X137108739Y-88863171D01*
X137117751Y-88851760D01*
X137202816Y-88713757D01*
X137208963Y-88700576D01*
X137260138Y-88546290D01*
X137263005Y-88532914D01*
X137272672Y-88438562D01*
X137273000Y-88432146D01*
X137273000Y-88257115D01*
X137268525Y-88241876D01*
X137267135Y-88240671D01*
X137259452Y-88239000D01*
X136162115Y-88239000D01*
X136146876Y-88243475D01*
X136145671Y-88244865D01*
X136144000Y-88252548D01*
X136144000Y-89124884D01*
X135636000Y-89124884D01*
X135636000Y-88257115D01*
X135631525Y-88241876D01*
X135630135Y-88240671D01*
X135622452Y-88239000D01*
X134525116Y-88239000D01*
X134509877Y-88243475D01*
X134508672Y-88244865D01*
X134507001Y-88252548D01*
X134507001Y-88432095D01*
X129695784Y-88432095D01*
X129892494Y-88291524D01*
X129898115Y-88287733D01*
X130485450Y-87914281D01*
X130491295Y-87910782D01*
X130843223Y-87712885D01*
X134507000Y-87712885D01*
X134511475Y-87728124D01*
X134512865Y-87729329D01*
X134520548Y-87731000D01*
X135617885Y-87731000D01*
X135633124Y-87726525D01*
X135634329Y-87725135D01*
X135636000Y-87717452D01*
X135636000Y-87712885D01*
X136144000Y-87712885D01*
X136148475Y-87728124D01*
X136149865Y-87729329D01*
X136157548Y-87731000D01*
X137254884Y-87731000D01*
X137270123Y-87726525D01*
X137271328Y-87725135D01*
X137272999Y-87717452D01*
X137272999Y-87537905D01*
X137272662Y-87531386D01*
X137262743Y-87435794D01*
X137259851Y-87422400D01*
X137208412Y-87268216D01*
X137202239Y-87255038D01*
X137116937Y-87117193D01*
X137107901Y-87105792D01*
X136993171Y-86991261D01*
X136981760Y-86982249D01*
X136843757Y-86897184D01*
X136830576Y-86891037D01*
X136676290Y-86839862D01*
X136662914Y-86836995D01*
X136568562Y-86827328D01*
X136562145Y-86827000D01*
X136162115Y-86827000D01*
X136146876Y-86831475D01*
X136145671Y-86832865D01*
X136144000Y-86840548D01*
X136144000Y-87712885D01*
X135636000Y-87712885D01*
X135636000Y-86845116D01*
X135631525Y-86829877D01*
X135630135Y-86828672D01*
X135622452Y-86827001D01*
X135217905Y-86827001D01*
X135211386Y-86827338D01*
X135115794Y-86837257D01*
X135102400Y-86840149D01*
X134948216Y-86891588D01*
X134935038Y-86897761D01*
X134797193Y-86983063D01*
X134785792Y-86992099D01*
X134671261Y-87106829D01*
X134662249Y-87118240D01*
X134577184Y-87256243D01*
X134571037Y-87269424D01*
X134519862Y-87423710D01*
X134516995Y-87437086D01*
X134507328Y-87531438D01*
X134507000Y-87537855D01*
X134507000Y-87712885D01*
X130843223Y-87712885D01*
X131097970Y-87569635D01*
X131104000Y-87566456D01*
X131728223Y-87258624D01*
X131734415Y-87255776D01*
X132374365Y-86982154D01*
X132380703Y-86979644D01*
X133034531Y-86741023D01*
X133040995Y-86738860D01*
X133706770Y-86535948D01*
X133713342Y-86534138D01*
X134389108Y-86367528D01*
X134395768Y-86366076D01*
X134737660Y-86301166D01*
X135079566Y-86236253D01*
X135086266Y-86235167D01*
X135776103Y-86142511D01*
X135782866Y-86141789D01*
X136129774Y-86114181D01*
X136476674Y-86086575D01*
X136483482Y-86086218D01*
X136809290Y-86077971D01*
X137179276Y-86068606D01*
X137186076Y-86068618D01*
G37*
G04 #@! TD.AperFunction*
G04 #@! TA.AperFunction,Conductor*
G36*
X135499787Y-105425546D02*
G01*
X135585490Y-105475326D01*
X135592494Y-105477447D01*
X135592498Y-105477449D01*
X135723488Y-105517121D01*
X135754767Y-105526595D01*
X135931298Y-105537547D01*
X135931903Y-105537443D01*
X135998320Y-105553099D01*
X136025127Y-105573531D01*
X136524595Y-106072999D01*
X136558621Y-106135311D01*
X136561500Y-106162094D01*
X136561500Y-106835400D01*
X136561837Y-106838646D01*
X136561837Y-106838650D01*
X136570297Y-106920182D01*
X136572474Y-106941166D01*
X136574654Y-106947699D01*
X136574656Y-106947710D01*
X136607336Y-107045660D01*
X136609922Y-107116610D01*
X136573738Y-107177694D01*
X136510274Y-107209519D01*
X136486328Y-107211370D01*
X136486328Y-107211500D01*
X135293672Y-107211500D01*
X135287592Y-107211808D01*
X135255926Y-107218193D01*
X135185197Y-107212051D01*
X135129016Y-107168644D01*
X135105221Y-107101753D01*
X135113040Y-107050448D01*
X135123479Y-107022603D01*
X135127105Y-107007351D01*
X135132631Y-106956486D01*
X135133000Y-106949672D01*
X135133000Y-106397115D01*
X135128525Y-106381876D01*
X135127135Y-106380671D01*
X135119452Y-106379000D01*
X134309500Y-106379000D01*
X134241379Y-106358998D01*
X134194886Y-106305342D01*
X134183500Y-106253000D01*
X134183500Y-105997000D01*
X134203502Y-105928879D01*
X134257158Y-105882386D01*
X134309500Y-105871000D01*
X135114884Y-105871000D01*
X135130123Y-105866525D01*
X135131328Y-105865135D01*
X135132999Y-105857452D01*
X135132999Y-105534500D01*
X135153001Y-105466379D01*
X135206657Y-105419886D01*
X135258999Y-105408500D01*
X135436502Y-105408500D01*
X135499787Y-105425546D01*
G37*
G04 #@! TD.AperFunction*
G04 #@! TA.AperFunction,Conductor*
G36*
X139146160Y-102378502D02*
G01*
X139192653Y-102432158D01*
X139202757Y-102502432D01*
X139198332Y-102519705D01*
X139198349Y-102519709D01*
X139192895Y-102542649D01*
X139187369Y-102593514D01*
X139187000Y-102600328D01*
X139187000Y-103152885D01*
X139191475Y-103168124D01*
X139192865Y-103169329D01*
X139200548Y-103171000D01*
X140010500Y-103171000D01*
X140078621Y-103191002D01*
X140125114Y-103244658D01*
X140136500Y-103297000D01*
X140136500Y-103553000D01*
X140116498Y-103621121D01*
X140062842Y-103667614D01*
X140010500Y-103679000D01*
X139205116Y-103679000D01*
X139189877Y-103683475D01*
X139177236Y-103698063D01*
X139157449Y-103734302D01*
X139095137Y-103768328D01*
X139024321Y-103763264D01*
X138967485Y-103720719D01*
X138961617Y-103710944D01*
X138961094Y-103711268D01*
X138871937Y-103567193D01*
X138862901Y-103555792D01*
X138748171Y-103441261D01*
X138736760Y-103432249D01*
X138598757Y-103347184D01*
X138585576Y-103341037D01*
X138431290Y-103289862D01*
X138417914Y-103286995D01*
X138323562Y-103277328D01*
X138317145Y-103277000D01*
X138067115Y-103277000D01*
X138051876Y-103281475D01*
X138050671Y-103282865D01*
X138049000Y-103290548D01*
X138049000Y-104500500D01*
X138028998Y-104568621D01*
X137975342Y-104615114D01*
X137923000Y-104626500D01*
X137667000Y-104626500D01*
X137598879Y-104606498D01*
X137552386Y-104552842D01*
X137541000Y-104500500D01*
X137541000Y-103295116D01*
X137536525Y-103279877D01*
X137535135Y-103278672D01*
X137527452Y-103277001D01*
X137272905Y-103277001D01*
X137266386Y-103277338D01*
X137170794Y-103287257D01*
X137157400Y-103290149D01*
X137003216Y-103341588D01*
X136990038Y-103347761D01*
X136845965Y-103436917D01*
X136845196Y-103435674D01*
X136786949Y-103459247D01*
X136717186Y-103446074D01*
X136665619Y-103397275D01*
X136648500Y-103333864D01*
X136648500Y-102601371D01*
X136668502Y-102533250D01*
X136685405Y-102512276D01*
X136802276Y-102395405D01*
X136864588Y-102361379D01*
X136891371Y-102358500D01*
X139078039Y-102358500D01*
X139146160Y-102378502D01*
G37*
G04 #@! TD.AperFunction*
G04 #@! TA.AperFunction,Conductor*
G36*
X136314578Y-94301002D02*
G01*
X136361071Y-94354658D01*
X136371175Y-94424932D01*
X136363002Y-94452362D01*
X136363342Y-94452475D01*
X136309862Y-94613710D01*
X136306995Y-94627086D01*
X136297328Y-94721438D01*
X136297000Y-94727855D01*
X136297000Y-94977885D01*
X136301475Y-94993124D01*
X136302865Y-94994329D01*
X136310548Y-94996000D01*
X137520500Y-94996000D01*
X137588621Y-95016002D01*
X137635114Y-95069658D01*
X137646500Y-95122000D01*
X137646500Y-96464884D01*
X137650975Y-96480123D01*
X137652365Y-96481328D01*
X137660048Y-96482999D01*
X137777095Y-96482999D01*
X137783614Y-96482662D01*
X137879206Y-96472743D01*
X137892600Y-96469851D01*
X138046784Y-96418412D01*
X138059962Y-96412239D01*
X138197807Y-96326937D01*
X138209208Y-96317901D01*
X138323738Y-96203172D01*
X138330794Y-96194238D01*
X138388712Y-96153177D01*
X138459635Y-96149947D01*
X138521046Y-96185574D01*
X138527846Y-96193407D01*
X138531522Y-96199348D01*
X138656697Y-96324305D01*
X138662927Y-96328145D01*
X138662928Y-96328146D01*
X138800288Y-96412816D01*
X138807262Y-96417115D01*
X138887005Y-96443564D01*
X138968611Y-96470632D01*
X138968613Y-96470632D01*
X138975139Y-96472797D01*
X138981975Y-96473497D01*
X138981978Y-96473498D01*
X139025031Y-96477909D01*
X139079600Y-96483500D01*
X139855400Y-96483500D01*
X139858646Y-96483163D01*
X139858650Y-96483163D01*
X139954308Y-96473238D01*
X139954312Y-96473237D01*
X139961166Y-96472526D01*
X139967702Y-96470345D01*
X139967704Y-96470345D01*
X140111723Y-96422296D01*
X140128946Y-96416550D01*
X140279348Y-96323478D01*
X140284915Y-96317901D01*
X140355960Y-96246733D01*
X140418243Y-96212654D01*
X140489063Y-96217657D01*
X140545936Y-96260155D01*
X140570443Y-96322580D01*
X140584458Y-96455928D01*
X140643473Y-96637556D01*
X140738960Y-96802944D01*
X140811608Y-96883627D01*
X140842323Y-96947632D01*
X140833560Y-97018085D01*
X140807065Y-97057031D01*
X140198111Y-97665984D01*
X140135799Y-97700009D01*
X140071088Y-97695923D01*
X140070906Y-97696610D01*
X140067430Y-97695692D01*
X140066960Y-97695662D01*
X140065910Y-97695290D01*
X140065901Y-97695288D01*
X140061028Y-97693562D01*
X140055935Y-97692655D01*
X140055932Y-97692654D01*
X139838095Y-97653851D01*
X139838089Y-97653850D01*
X139833006Y-97652945D01*
X139760096Y-97652054D01*
X139606581Y-97650179D01*
X139606579Y-97650179D01*
X139601411Y-97650116D01*
X139372464Y-97685150D01*
X139152314Y-97757106D01*
X139147726Y-97759494D01*
X139147722Y-97759496D01*
X139041663Y-97814707D01*
X138946872Y-97864052D01*
X138942739Y-97867155D01*
X138942736Y-97867157D01*
X138784178Y-97986206D01*
X138761655Y-98003117D01*
X138601639Y-98170564D01*
X138471119Y-98361899D01*
X138373602Y-98571981D01*
X138311707Y-98795169D01*
X138287095Y-99025469D01*
X138287392Y-99030622D01*
X138287392Y-99030625D01*
X138300129Y-99251529D01*
X138300427Y-99256697D01*
X138301564Y-99261743D01*
X138301565Y-99261749D01*
X138330397Y-99389684D01*
X138351346Y-99482642D01*
X138353288Y-99487424D01*
X138353289Y-99487428D01*
X138403383Y-99610794D01*
X138438484Y-99697237D01*
X138559501Y-99894719D01*
X138711147Y-100069784D01*
X138889349Y-100217730D01*
X139089322Y-100334584D01*
X139094147Y-100336426D01*
X139094148Y-100336427D01*
X139133620Y-100351500D01*
X139305694Y-100417209D01*
X139310760Y-100418240D01*
X139310761Y-100418240D01*
X139326062Y-100421353D01*
X139532656Y-100463385D01*
X139662089Y-100468131D01*
X139758949Y-100471683D01*
X139758953Y-100471683D01*
X139764113Y-100471872D01*
X139769233Y-100471216D01*
X139769235Y-100471216D01*
X139843166Y-100461745D01*
X139993847Y-100442442D01*
X139998795Y-100440957D01*
X139998802Y-100440956D01*
X140210747Y-100377369D01*
X140215690Y-100375886D01*
X140228491Y-100369615D01*
X140419049Y-100276262D01*
X140419052Y-100276260D01*
X140423684Y-100273991D01*
X140612243Y-100139494D01*
X140657309Y-100094585D01*
X140719681Y-100060669D01*
X140790487Y-100065857D01*
X140847249Y-100108503D01*
X140864231Y-100139607D01*
X140889385Y-100206705D01*
X140976739Y-100323261D01*
X141093295Y-100410615D01*
X141229684Y-100461745D01*
X141291866Y-100468500D01*
X141480455Y-100468500D01*
X141548576Y-100488502D01*
X141595069Y-100542158D01*
X141606394Y-100590578D01*
X141606439Y-100592023D01*
X141606500Y-100595945D01*
X141606500Y-100623856D01*
X141606997Y-100627790D01*
X141606997Y-100627791D01*
X141607005Y-100627856D01*
X141607938Y-100639693D01*
X141609327Y-100683889D01*
X141611537Y-100691497D01*
X141612217Y-100695788D01*
X141603119Y-100766199D01*
X141557398Y-100820514D01*
X141487769Y-100841500D01*
X136592070Y-100841500D01*
X136573120Y-100840067D01*
X136558885Y-100837901D01*
X136558881Y-100837901D01*
X136551651Y-100836801D01*
X136544359Y-100837394D01*
X136544356Y-100837394D01*
X136498982Y-100841085D01*
X136488767Y-100841500D01*
X136480707Y-100841500D01*
X136477073Y-100841924D01*
X136477067Y-100841924D01*
X136464042Y-100843443D01*
X136452480Y-100844791D01*
X136448132Y-100845221D01*
X136426059Y-100847016D01*
X136382662Y-100850546D01*
X136382659Y-100850547D01*
X136375364Y-100851140D01*
X136368400Y-100853396D01*
X136362461Y-100854583D01*
X136356590Y-100855970D01*
X136349319Y-100856818D01*
X136342443Y-100859314D01*
X136342434Y-100859316D01*
X136280702Y-100881725D01*
X136276598Y-100883135D01*
X136207101Y-100905648D01*
X136200846Y-100909444D01*
X136195387Y-100911943D01*
X136189939Y-100914671D01*
X136183063Y-100917167D01*
X136122010Y-100957195D01*
X136118337Y-100959513D01*
X136055893Y-100997405D01*
X136047517Y-101004802D01*
X136047493Y-101004775D01*
X136044499Y-101007430D01*
X136041268Y-101010132D01*
X136035148Y-101014144D01*
X136030116Y-101019456D01*
X135981872Y-101070383D01*
X135979494Y-101072825D01*
X135401089Y-101651230D01*
X135386677Y-101663616D01*
X135375082Y-101672149D01*
X135375077Y-101672154D01*
X135369182Y-101676492D01*
X135364443Y-101682070D01*
X135364440Y-101682073D01*
X135334965Y-101716768D01*
X135328035Y-101724284D01*
X135322340Y-101729979D01*
X135320060Y-101732861D01*
X135304719Y-101752251D01*
X135301928Y-101755655D01*
X135259409Y-101805703D01*
X135254667Y-101811285D01*
X135251339Y-101817801D01*
X135247972Y-101822850D01*
X135244805Y-101827979D01*
X135240266Y-101833716D01*
X135209345Y-101899875D01*
X135207442Y-101903769D01*
X135174231Y-101968808D01*
X135172492Y-101975916D01*
X135170393Y-101981559D01*
X135168476Y-101987322D01*
X135165378Y-101993950D01*
X135163888Y-102001112D01*
X135163888Y-102001113D01*
X135150514Y-102065412D01*
X135149544Y-102069696D01*
X135132192Y-102140610D01*
X135131844Y-102146216D01*
X135131001Y-102151758D01*
X135129688Y-102151558D01*
X135107707Y-102212230D01*
X135051274Y-102255310D01*
X134980509Y-102261041D01*
X134930567Y-102238500D01*
X134871705Y-102194385D01*
X134853271Y-102187474D01*
X134847010Y-102185127D01*
X134802144Y-102156240D01*
X134790221Y-102144317D01*
X134777380Y-102129283D01*
X134770131Y-102119306D01*
X134765472Y-102112893D01*
X134759367Y-102107842D01*
X134759362Y-102107837D01*
X134731396Y-102084701D01*
X134722618Y-102076713D01*
X133853652Y-101207747D01*
X133846112Y-101199461D01*
X133842000Y-101192982D01*
X133831376Y-101183005D01*
X133792349Y-101146357D01*
X133789507Y-101143602D01*
X133769770Y-101123865D01*
X133766573Y-101121385D01*
X133757551Y-101113680D01*
X133725321Y-101083414D01*
X133718375Y-101079595D01*
X133718372Y-101079593D01*
X133707566Y-101073652D01*
X133691047Y-101062801D01*
X133690583Y-101062441D01*
X133675041Y-101050386D01*
X133667772Y-101047241D01*
X133667768Y-101047238D01*
X133634463Y-101032826D01*
X133623813Y-101027609D01*
X133585060Y-101006305D01*
X133565437Y-101001267D01*
X133546734Y-100994863D01*
X133535420Y-100989967D01*
X133535419Y-100989967D01*
X133528145Y-100986819D01*
X133520322Y-100985580D01*
X133520312Y-100985577D01*
X133484476Y-100979901D01*
X133472856Y-100977495D01*
X133437711Y-100968472D01*
X133437710Y-100968472D01*
X133430030Y-100966500D01*
X133409776Y-100966500D01*
X133390065Y-100964949D01*
X133377886Y-100963020D01*
X133370057Y-100961780D01*
X133362165Y-100962526D01*
X133326039Y-100965941D01*
X133314181Y-100966500D01*
X131759595Y-100966500D01*
X131691474Y-100946498D01*
X131670499Y-100929595D01*
X131480404Y-100739499D01*
X131446379Y-100677187D01*
X131443500Y-100650404D01*
X131443500Y-100507713D01*
X131463502Y-100439592D01*
X131517158Y-100393099D01*
X131587432Y-100382995D01*
X131614449Y-100390003D01*
X131685694Y-100417209D01*
X131690760Y-100418240D01*
X131690761Y-100418240D01*
X131706062Y-100421353D01*
X131912656Y-100463385D01*
X132042089Y-100468131D01*
X132138949Y-100471683D01*
X132138953Y-100471683D01*
X132144113Y-100471872D01*
X132149233Y-100471216D01*
X132149235Y-100471216D01*
X132223166Y-100461745D01*
X132373847Y-100442442D01*
X132378795Y-100440957D01*
X132378802Y-100440956D01*
X132590747Y-100377369D01*
X132595690Y-100375886D01*
X132608491Y-100369615D01*
X132799049Y-100276262D01*
X132799052Y-100276260D01*
X132803684Y-100273991D01*
X132992243Y-100139494D01*
X133037309Y-100094585D01*
X133099681Y-100060669D01*
X133170487Y-100065857D01*
X133227249Y-100108503D01*
X133244231Y-100139607D01*
X133269385Y-100206705D01*
X133356739Y-100323261D01*
X133473295Y-100410615D01*
X133609684Y-100461745D01*
X133671866Y-100468500D01*
X135568134Y-100468500D01*
X135630316Y-100461745D01*
X135766705Y-100410615D01*
X135883261Y-100323261D01*
X135970615Y-100206705D01*
X136021745Y-100070316D01*
X136028500Y-100008134D01*
X136028500Y-98111866D01*
X136021745Y-98049684D01*
X135970615Y-97913295D01*
X135883261Y-97796739D01*
X135766705Y-97709385D01*
X135630316Y-97658255D01*
X135568134Y-97651500D01*
X135379500Y-97651500D01*
X135311379Y-97631498D01*
X135264886Y-97577842D01*
X135253500Y-97525500D01*
X135253500Y-95952524D01*
X135273502Y-95884403D01*
X135285858Y-95868221D01*
X135359040Y-95786944D01*
X135367613Y-95772095D01*
X136297001Y-95772095D01*
X136297338Y-95778614D01*
X136307257Y-95874206D01*
X136310149Y-95887600D01*
X136361588Y-96041784D01*
X136367761Y-96054962D01*
X136453063Y-96192807D01*
X136462099Y-96204208D01*
X136576829Y-96318739D01*
X136588240Y-96327751D01*
X136726243Y-96412816D01*
X136739424Y-96418963D01*
X136893710Y-96470138D01*
X136907086Y-96473005D01*
X137001438Y-96482672D01*
X137007854Y-96483000D01*
X137120385Y-96483000D01*
X137135624Y-96478525D01*
X137136829Y-96477135D01*
X137138500Y-96469452D01*
X137138500Y-95522115D01*
X137134025Y-95506876D01*
X137132635Y-95505671D01*
X137124952Y-95504000D01*
X136315116Y-95504000D01*
X136299877Y-95508475D01*
X136298672Y-95509865D01*
X136297001Y-95517548D01*
X136297001Y-95772095D01*
X135367613Y-95772095D01*
X135433311Y-95658303D01*
X135451223Y-95627279D01*
X135451224Y-95627278D01*
X135454527Y-95621556D01*
X135513542Y-95439928D01*
X135516202Y-95414625D01*
X135532814Y-95256565D01*
X135533504Y-95250000D01*
X135532306Y-95238598D01*
X135514232Y-95066635D01*
X135514232Y-95066633D01*
X135513542Y-95060072D01*
X135454527Y-94878444D01*
X135449119Y-94869076D01*
X135388159Y-94763491D01*
X135359040Y-94713056D01*
X135344798Y-94697238D01*
X135235675Y-94576045D01*
X135235674Y-94576044D01*
X135231253Y-94571134D01*
X135145645Y-94508936D01*
X135102291Y-94452714D01*
X135096216Y-94381977D01*
X135129347Y-94319186D01*
X135191168Y-94284274D01*
X135219706Y-94281000D01*
X136246457Y-94281000D01*
X136314578Y-94301002D01*
G37*
G04 #@! TD.AperFunction*
G04 #@! TA.AperFunction,Conductor*
G36*
X146888139Y-94954799D02*
G01*
X146905127Y-94969031D01*
X147665595Y-95729499D01*
X147699621Y-95791811D01*
X147702500Y-95818594D01*
X147702500Y-96847462D01*
X147682498Y-96915583D01*
X147628842Y-96962076D01*
X147616376Y-96966986D01*
X147555347Y-96987347D01*
X147537054Y-96993450D01*
X147386652Y-97086522D01*
X147261695Y-97211697D01*
X147257855Y-97217927D01*
X147257854Y-97217928D01*
X147175375Y-97351734D01*
X147168885Y-97362262D01*
X147113203Y-97530139D01*
X147102500Y-97634600D01*
X147102500Y-98410400D01*
X147102837Y-98413646D01*
X147102837Y-98413650D01*
X147108057Y-98463955D01*
X147113474Y-98516166D01*
X147115655Y-98522702D01*
X147115655Y-98522704D01*
X147152362Y-98632726D01*
X147169450Y-98683946D01*
X147262522Y-98834348D01*
X147387697Y-98959305D01*
X147392235Y-98962102D01*
X147432824Y-99019353D01*
X147436054Y-99090276D01*
X147400428Y-99151687D01*
X147391932Y-99159062D01*
X147381793Y-99167098D01*
X147267261Y-99281829D01*
X147258249Y-99293240D01*
X147173184Y-99431243D01*
X147167037Y-99444424D01*
X147150093Y-99495508D01*
X147109662Y-99553868D01*
X147044098Y-99581104D01*
X146974216Y-99568570D01*
X146922204Y-99520245D01*
X146905272Y-99458648D01*
X146904684Y-99458680D01*
X146904538Y-99455977D01*
X146904500Y-99455840D01*
X146904500Y-99451866D01*
X146897745Y-99389684D01*
X146846615Y-99253295D01*
X146759261Y-99136739D01*
X146642705Y-99049385D01*
X146506316Y-98998255D01*
X146444134Y-98991500D01*
X145147866Y-98991500D01*
X145085684Y-98998255D01*
X144949295Y-99049385D01*
X144832739Y-99136739D01*
X144827358Y-99143919D01*
X144821008Y-99150269D01*
X144819373Y-99148634D01*
X144772641Y-99183579D01*
X144728671Y-99191500D01*
X144591273Y-99191500D01*
X144572545Y-99190100D01*
X144570503Y-99189793D01*
X144550290Y-99186755D01*
X144498421Y-99191067D01*
X144487982Y-99191500D01*
X144480707Y-99191500D01*
X144477075Y-99191923D01*
X144477066Y-99191924D01*
X144451715Y-99194880D01*
X144447562Y-99195295D01*
X144408208Y-99198567D01*
X144374027Y-99201408D01*
X144367072Y-99203675D01*
X144361814Y-99204735D01*
X144356588Y-99205970D01*
X144349319Y-99206818D01*
X144306722Y-99222280D01*
X144279961Y-99231994D01*
X144276015Y-99233352D01*
X144212828Y-99253946D01*
X144212819Y-99253950D01*
X144205864Y-99256217D01*
X144199617Y-99260023D01*
X144194756Y-99262259D01*
X144189940Y-99264671D01*
X144183063Y-99267167D01*
X144176946Y-99271178D01*
X144176943Y-99271179D01*
X144121393Y-99307600D01*
X144117864Y-99309831D01*
X144061072Y-99344431D01*
X144061068Y-99344434D01*
X144054818Y-99348242D01*
X144049609Y-99353388D01*
X144045418Y-99356663D01*
X144041274Y-99360127D01*
X144035148Y-99364144D01*
X144030112Y-99369460D01*
X143984408Y-99417705D01*
X143981490Y-99420684D01*
X143932990Y-99468600D01*
X143932984Y-99468607D01*
X143928995Y-99472548D01*
X143922562Y-99481685D01*
X143922537Y-99481668D01*
X143919936Y-99485373D01*
X143918546Y-99487231D01*
X143913510Y-99492547D01*
X143909834Y-99498876D01*
X143909833Y-99498877D01*
X143883454Y-99544292D01*
X143831943Y-99593150D01*
X143762194Y-99606404D01*
X143696353Y-99579844D01*
X143655322Y-99521905D01*
X143648500Y-99481006D01*
X143648500Y-98757444D01*
X143668502Y-98689323D01*
X143722158Y-98642830D01*
X143792432Y-98632726D01*
X143825748Y-98642337D01*
X143862712Y-98658794D01*
X143948355Y-98676998D01*
X144043056Y-98697128D01*
X144043061Y-98697128D01*
X144049513Y-98698500D01*
X144240487Y-98698500D01*
X144246939Y-98697128D01*
X144246944Y-98697128D01*
X144341645Y-98676998D01*
X144427288Y-98658794D01*
X144463144Y-98642830D01*
X144595722Y-98583803D01*
X144595724Y-98583802D01*
X144601752Y-98581118D01*
X144607484Y-98576954D01*
X144682152Y-98522704D01*
X144756253Y-98468866D01*
X144805970Y-98413650D01*
X144879621Y-98331852D01*
X144879622Y-98331851D01*
X144884040Y-98326944D01*
X144948206Y-98215806D01*
X144976223Y-98167279D01*
X144976224Y-98167278D01*
X144979527Y-98161556D01*
X145038542Y-97979928D01*
X145055907Y-97814706D01*
X145082920Y-97749050D01*
X145092122Y-97738782D01*
X145172247Y-97658657D01*
X145180537Y-97651113D01*
X145187018Y-97647000D01*
X145233659Y-97597332D01*
X145236413Y-97594491D01*
X145256135Y-97574769D01*
X145258612Y-97571576D01*
X145266317Y-97562555D01*
X145291159Y-97536100D01*
X145296586Y-97530321D01*
X145300998Y-97522296D01*
X145306346Y-97512568D01*
X145317202Y-97496041D01*
X145324757Y-97486302D01*
X145324758Y-97486300D01*
X145329614Y-97480040D01*
X145347174Y-97439460D01*
X145352391Y-97428812D01*
X145369875Y-97397009D01*
X145369876Y-97397007D01*
X145373695Y-97390060D01*
X145378733Y-97370437D01*
X145385137Y-97351734D01*
X145390033Y-97340420D01*
X145390033Y-97340419D01*
X145393181Y-97333145D01*
X145394420Y-97325322D01*
X145394423Y-97325312D01*
X145400099Y-97289476D01*
X145402505Y-97277856D01*
X145411528Y-97242711D01*
X145411528Y-97242710D01*
X145413500Y-97235030D01*
X145413500Y-97214776D01*
X145415051Y-97195065D01*
X145416980Y-97182886D01*
X145418220Y-97175057D01*
X145414059Y-97131038D01*
X145413500Y-97119181D01*
X145413500Y-96253091D01*
X145433502Y-96184970D01*
X145487158Y-96138477D01*
X145557432Y-96128373D01*
X145565697Y-96129844D01*
X145694056Y-96157128D01*
X145694061Y-96157128D01*
X145700513Y-96158500D01*
X145891487Y-96158500D01*
X145897939Y-96157128D01*
X145897944Y-96157128D01*
X145985687Y-96138477D01*
X146078288Y-96118794D01*
X146084319Y-96116109D01*
X146246722Y-96043803D01*
X146246724Y-96043802D01*
X146252752Y-96041118D01*
X146407253Y-95928866D01*
X146439142Y-95893450D01*
X146530621Y-95791852D01*
X146530625Y-95791847D01*
X146535040Y-95786944D01*
X146609311Y-95658303D01*
X146627223Y-95627279D01*
X146627224Y-95627278D01*
X146630527Y-95621556D01*
X146689542Y-95439928D01*
X146692202Y-95414625D01*
X146708814Y-95256565D01*
X146709504Y-95250000D01*
X146708306Y-95238598D01*
X146690722Y-95071296D01*
X146703494Y-95001458D01*
X146751996Y-94949611D01*
X146820829Y-94932217D01*
X146888139Y-94954799D01*
G37*
G04 #@! TD.AperFunction*
G04 #@! TA.AperFunction,Conductor*
G36*
X143263527Y-90823502D02*
G01*
X143284501Y-90840405D01*
X144076117Y-91632021D01*
X144110143Y-91694333D01*
X144105078Y-91765148D01*
X144101785Y-91773130D01*
X144084000Y-91812370D01*
X144084000Y-93925158D01*
X144066453Y-93989297D01*
X144020855Y-94066399D01*
X143974438Y-94226169D01*
X143973934Y-94232574D01*
X143973933Y-94232579D01*
X143972056Y-94256435D01*
X143971500Y-94263498D01*
X143971500Y-95571502D01*
X143971692Y-95573943D01*
X143971693Y-95573958D01*
X143972387Y-95582768D01*
X143974438Y-95608831D01*
X143990316Y-95663483D01*
X144015461Y-95750033D01*
X144020855Y-95768601D01*
X144024892Y-95775427D01*
X144101509Y-95904980D01*
X144101511Y-95904983D01*
X144105547Y-95911807D01*
X144111155Y-95917415D01*
X144116011Y-95923675D01*
X144114504Y-95924844D01*
X144143621Y-95978167D01*
X144146500Y-96004950D01*
X144146500Y-96758852D01*
X144126498Y-96826973D01*
X144072842Y-96873466D01*
X144046701Y-96882098D01*
X143862712Y-96921206D01*
X143856682Y-96923891D01*
X143856681Y-96923891D01*
X143694278Y-96996197D01*
X143694276Y-96996198D01*
X143688248Y-96998882D01*
X143533747Y-97111134D01*
X143529326Y-97116044D01*
X143529325Y-97116045D01*
X143415275Y-97242711D01*
X143405960Y-97253056D01*
X143371006Y-97313598D01*
X143362619Y-97328125D01*
X143311237Y-97377118D01*
X143241523Y-97390554D01*
X143175612Y-97364168D01*
X143134430Y-97306336D01*
X143127500Y-97265125D01*
X143127500Y-95836763D01*
X143128027Y-95825579D01*
X143129701Y-95818091D01*
X143127562Y-95750032D01*
X143127500Y-95746075D01*
X143127500Y-95718144D01*
X143126994Y-95714138D01*
X143126061Y-95702292D01*
X143124922Y-95666037D01*
X143124673Y-95658110D01*
X143119022Y-95638658D01*
X143115014Y-95619306D01*
X143113468Y-95607068D01*
X143113467Y-95607066D01*
X143112474Y-95599203D01*
X143096194Y-95558086D01*
X143092359Y-95546885D01*
X143080018Y-95504406D01*
X143075985Y-95497587D01*
X143075983Y-95497582D01*
X143069707Y-95486971D01*
X143061010Y-95469221D01*
X143053552Y-95450383D01*
X143027571Y-95414623D01*
X143021053Y-95404701D01*
X143002578Y-95373460D01*
X143002574Y-95373455D01*
X142998542Y-95366637D01*
X142984218Y-95352313D01*
X142971376Y-95337278D01*
X142959472Y-95320893D01*
X142925406Y-95292711D01*
X142916627Y-95284722D01*
X142489652Y-94857747D01*
X142482112Y-94849461D01*
X142478000Y-94842982D01*
X142428348Y-94796356D01*
X142425507Y-94793602D01*
X142405770Y-94773865D01*
X142402573Y-94771385D01*
X142393551Y-94763680D01*
X142367100Y-94738841D01*
X142361321Y-94733414D01*
X142354375Y-94729595D01*
X142354372Y-94729593D01*
X142343566Y-94723652D01*
X142327047Y-94712801D01*
X142321048Y-94708148D01*
X142311041Y-94700386D01*
X142303772Y-94697241D01*
X142303768Y-94697238D01*
X142270463Y-94682826D01*
X142259813Y-94677609D01*
X142221060Y-94656305D01*
X142201437Y-94651267D01*
X142182734Y-94644863D01*
X142171420Y-94639967D01*
X142171419Y-94639967D01*
X142164145Y-94636819D01*
X142156322Y-94635580D01*
X142156312Y-94635577D01*
X142120476Y-94629901D01*
X142108856Y-94627495D01*
X142073711Y-94618472D01*
X142073710Y-94618472D01*
X142066030Y-94616500D01*
X142045776Y-94616500D01*
X142026065Y-94614949D01*
X142018243Y-94613710D01*
X142006057Y-94611780D01*
X141998165Y-94612526D01*
X141962039Y-94615941D01*
X141950181Y-94616500D01*
X140642538Y-94616500D01*
X140574417Y-94596498D01*
X140527924Y-94542842D01*
X140523014Y-94530376D01*
X140498868Y-94458002D01*
X140496550Y-94451054D01*
X140403478Y-94300652D01*
X140370482Y-94267714D01*
X140336403Y-94205433D01*
X140333500Y-94178541D01*
X140333500Y-93693984D01*
X143022001Y-93693984D01*
X143022195Y-93698920D01*
X143024430Y-93727336D01*
X143026730Y-93739931D01*
X143069107Y-93885790D01*
X143075352Y-93900221D01*
X143151911Y-94029678D01*
X143161551Y-94042104D01*
X143267896Y-94148449D01*
X143280322Y-94158089D01*
X143409779Y-94234648D01*
X143424210Y-94240893D01*
X143558605Y-94279939D01*
X143572706Y-94279899D01*
X143576000Y-94272630D01*
X143576000Y-93314615D01*
X143571525Y-93299376D01*
X143570135Y-93298171D01*
X143562452Y-93296500D01*
X143040116Y-93296500D01*
X143024877Y-93300975D01*
X143023672Y-93302365D01*
X143022001Y-93310048D01*
X143022001Y-93693984D01*
X140333500Y-93693984D01*
X140333500Y-92770385D01*
X143022000Y-92770385D01*
X143026475Y-92785624D01*
X143027865Y-92786829D01*
X143035548Y-92788500D01*
X143557885Y-92788500D01*
X143573124Y-92784025D01*
X143574329Y-92782635D01*
X143576000Y-92774952D01*
X143576000Y-91818122D01*
X143572027Y-91804591D01*
X143564129Y-91803456D01*
X143424210Y-91844107D01*
X143409779Y-91850352D01*
X143280322Y-91926911D01*
X143267896Y-91936551D01*
X143161551Y-92042896D01*
X143151911Y-92055322D01*
X143075352Y-92184779D01*
X143069107Y-92199210D01*
X143026731Y-92345065D01*
X143024430Y-92357667D01*
X143022193Y-92386084D01*
X143022000Y-92391014D01*
X143022000Y-92770385D01*
X140333500Y-92770385D01*
X140333500Y-92263795D01*
X140353502Y-92195674D01*
X140367650Y-92177542D01*
X140386158Y-92157833D01*
X140388913Y-92154991D01*
X140408635Y-92135269D01*
X140411112Y-92132076D01*
X140418817Y-92123055D01*
X140443659Y-92096600D01*
X140449086Y-92090821D01*
X140455511Y-92079134D01*
X140458846Y-92073068D01*
X140469702Y-92056541D01*
X140477257Y-92046802D01*
X140477258Y-92046800D01*
X140482114Y-92040540D01*
X140499674Y-91999960D01*
X140504891Y-91989312D01*
X140522375Y-91957509D01*
X140522376Y-91957507D01*
X140526195Y-91950560D01*
X140531233Y-91930937D01*
X140537637Y-91912234D01*
X140542533Y-91900920D01*
X140542533Y-91900919D01*
X140545681Y-91893645D01*
X140546920Y-91885822D01*
X140546923Y-91885812D01*
X140552599Y-91849976D01*
X140555005Y-91838356D01*
X140564028Y-91803211D01*
X140564028Y-91803210D01*
X140566000Y-91795530D01*
X140566000Y-91775276D01*
X140567551Y-91755565D01*
X140569480Y-91743386D01*
X140570720Y-91735557D01*
X140566559Y-91691538D01*
X140566000Y-91679681D01*
X140566000Y-91424046D01*
X140586002Y-91355925D01*
X140625697Y-91316902D01*
X140738120Y-91247332D01*
X140744348Y-91243478D01*
X140753241Y-91234570D01*
X140864134Y-91123483D01*
X140869305Y-91118303D01*
X140871906Y-91114084D01*
X140929030Y-91073583D01*
X140999953Y-91070351D01*
X141061365Y-91105976D01*
X141067922Y-91113530D01*
X141071522Y-91119348D01*
X141196697Y-91244305D01*
X141202927Y-91248145D01*
X141202928Y-91248146D01*
X141340090Y-91332694D01*
X141347262Y-91337115D01*
X141380167Y-91348029D01*
X141508611Y-91390632D01*
X141508613Y-91390632D01*
X141515139Y-91392797D01*
X141521975Y-91393497D01*
X141521978Y-91393498D01*
X141565031Y-91397909D01*
X141619600Y-91403500D01*
X142395400Y-91403500D01*
X142398646Y-91403163D01*
X142398650Y-91403163D01*
X142494308Y-91393238D01*
X142494312Y-91393237D01*
X142501166Y-91392526D01*
X142507702Y-91390345D01*
X142507704Y-91390345D01*
X142658275Y-91340110D01*
X142668946Y-91336550D01*
X142819348Y-91243478D01*
X142828241Y-91234570D01*
X142939134Y-91123483D01*
X142944305Y-91118303D01*
X142967195Y-91081169D01*
X143033275Y-90973968D01*
X143033276Y-90973966D01*
X143037115Y-90967738D01*
X143062955Y-90889833D01*
X143103386Y-90831473D01*
X143168950Y-90804236D01*
X143182548Y-90803500D01*
X143195406Y-90803500D01*
X143263527Y-90823502D01*
G37*
G04 #@! TD.AperFunction*
M02*
