G04 #@! TF.GenerationSoftware,KiCad,Pcbnew,6.0.8-f2edbf62ab~116~ubuntu20.04.1*
G04 #@! TF.CreationDate,2022-10-20T17:58:05+02:00*
G04 #@! TF.ProjectId,IR-Lese-Schreibkopf,49522d4c-6573-4652-9d53-636872656962,rev?*
G04 #@! TF.SameCoordinates,Original*
G04 #@! TF.FileFunction,Soldermask,Top*
G04 #@! TF.FilePolarity,Negative*
%FSLAX46Y46*%
G04 Gerber Fmt 4.6, Leading zero omitted, Abs format (unit mm)*
G04 Created by KiCad (PCBNEW 6.0.8-f2edbf62ab~116~ubuntu20.04.1) date 2022-10-20 17:58:05*
%MOMM*%
%LPD*%
G01*
G04 APERTURE LIST*
G04 Aperture macros list*
%AMRoundRect*
0 Rectangle with rounded corners*
0 $1 Rounding radius*
0 $2 $3 $4 $5 $6 $7 $8 $9 X,Y pos of 4 corners*
0 Add a 4 corners polygon primitive as box body*
4,1,4,$2,$3,$4,$5,$6,$7,$8,$9,$2,$3,0*
0 Add four circle primitives for the rounded corners*
1,1,$1+$1,$2,$3*
1,1,$1+$1,$4,$5*
1,1,$1+$1,$6,$7*
1,1,$1+$1,$8,$9*
0 Add four rect primitives between the rounded corners*
20,1,$1+$1,$2,$3,$4,$5,0*
20,1,$1+$1,$4,$5,$6,$7,0*
20,1,$1+$1,$6,$7,$8,$9,0*
20,1,$1+$1,$8,$9,$2,$3,0*%
G04 Aperture macros list end*
G04 #@! TA.AperFunction,Profile*
%ADD10C,0.200000*%
G04 #@! TD*
%ADD11RoundRect,0.150000X-0.150000X0.587500X-0.150000X-0.587500X0.150000X-0.587500X0.150000X0.587500X0*%
%ADD12RoundRect,0.500000X-0.500000X-1.000000X0.500000X-1.000000X0.500000X1.000000X-0.500000X1.000000X0*%
%ADD13R,1.200000X0.900000*%
%ADD14RoundRect,0.250000X-0.475000X0.337500X-0.475000X-0.337500X0.475000X-0.337500X0.475000X0.337500X0*%
%ADD15RoundRect,0.500000X0.500000X1.000000X-0.500000X1.000000X-0.500000X-1.000000X0.500000X-1.000000X0*%
%ADD16RoundRect,0.250000X0.337500X0.475000X-0.337500X0.475000X-0.337500X-0.475000X0.337500X-0.475000X0*%
%ADD17RoundRect,0.250000X0.475000X-0.337500X0.475000X0.337500X-0.475000X0.337500X-0.475000X-0.337500X0*%
%ADD18R,0.650000X1.560000*%
%ADD19RoundRect,0.250000X0.625000X-0.400000X0.625000X0.400000X-0.625000X0.400000X-0.625000X-0.400000X0*%
%ADD20RoundRect,0.250000X-0.337500X-0.475000X0.337500X-0.475000X0.337500X0.475000X-0.337500X0.475000X0*%
%ADD21RoundRect,0.150000X0.150000X-0.587500X0.150000X0.587500X-0.150000X0.587500X-0.150000X-0.587500X0*%
%ADD22R,1.800000X1.800000*%
%ADD23C,1.800000*%
G04 APERTURE END LIST*
D10*
X150660000Y-99060000D02*
G75*
G03*
X150660000Y-99060000I-13500000J0D01*
G01*
D11*
X145730000Y-93042500D03*
X143830000Y-93042500D03*
X144780000Y-94917500D03*
D12*
X139700000Y-109220000D03*
D13*
X145796000Y-99950000D03*
X145796000Y-103250000D03*
D14*
X148336000Y-98022500D03*
X148336000Y-100097500D03*
D15*
X144780000Y-106172000D03*
D16*
X139467500Y-95250000D03*
X137392500Y-95250000D03*
D12*
X135890000Y-109220000D03*
D17*
X137795000Y-106447500D03*
X137795000Y-104372500D03*
X129540000Y-103272500D03*
X129540000Y-101197500D03*
D14*
X128270000Y-94847500D03*
X128270000Y-96922500D03*
D18*
X141920000Y-103425000D03*
X140970000Y-103425000D03*
X140020000Y-103425000D03*
X140020000Y-106125000D03*
X141920000Y-106125000D03*
X132400000Y-106125000D03*
X133350000Y-106125000D03*
X134300000Y-106125000D03*
X134300000Y-103425000D03*
X132400000Y-103425000D03*
D12*
X129540000Y-106172000D03*
D19*
X135890000Y-91085000D03*
X135890000Y-87985000D03*
D20*
X139932500Y-90170000D03*
X142007500Y-90170000D03*
D21*
X131130000Y-93647500D03*
X133030000Y-93647500D03*
X132080000Y-91772500D03*
D22*
X134620000Y-99060000D03*
D23*
X132080000Y-99060000D03*
D22*
X142240000Y-99060000D03*
D23*
X139700000Y-99060000D03*
M02*
